<svg width="62" height="83" viewBox="0 0 62 83" fill="none" xmlns="http://www.w3.org/2000/svg">
<g id="Puzzle" clip-path="url(#clip0_10746_58766)">
<path id="Vector" d="M22.4938 20.3473C21.3407 19.8445 21.0965 19.4208 21.2839 18.2626C21.5225 16.8219 21.7497 15.3812 22.0451 13.9519C22.153 13.449 22.028 13.144 21.6759 12.8106C20.5852 11.788 19.5344 10.7259 18.4495 9.69197C17.9723 9.23435 17.6826 8.73717 17.8871 8.05921C18.0916 7.37559 18.6199 7.13265 19.2788 7.04226C20.7045 6.84452 22.1189 6.58463 23.5503 6.43774C24.232 6.36994 24.5728 6.1044 24.8454 5.49423C25.4191 4.2174 26.0951 2.99141 26.7029 1.73152C26.9983 1.1383 27.4243 0.725873 28.1116 0.714573C28.8387 0.703274 29.2817 1.13265 29.5828 1.77107C30.219 3.1157 30.9063 4.43209 31.5481 5.77107C31.7299 6.1496 31.9685 6.35299 32.4002 6.40384C33.5646 6.54508 34.7291 6.70892 35.8822 6.90666C36.3309 6.98576 36.5695 6.81062 36.8535 6.50553C38.9098 4.31909 41.3466 2.75412 44.3458 2.2174C47.788 1.60158 50.6792 2.87277 53.3262 4.91231C53.9965 5.43209 54.61 6.03096 55.2916 6.53378C56.7912 7.64678 58.501 8.20045 60.3584 8.31909C61.4206 8.38689 62.0114 8.91796 61.983 9.76542C61.9546 10.6468 61.2729 11.1891 60.188 11.1214C57.274 10.9462 54.7293 9.88406 52.5537 7.93491C51.128 6.65243 49.5943 5.51683 47.6687 5.11005C45.1467 4.57898 42.8746 5.1496 40.6422 6.86712C42.4429 6.94056 43.9993 7.08745 45.5329 7.44339C48.89 8.2287 51.395 9.99706 52.6503 13.3134C53.1786 14.7033 53.8204 16.0479 54.4112 17.4095C55.5529 20.0366 57.5126 21.675 60.3414 22.2513C60.5686 22.2965 60.8015 22.3473 61.023 22.4264C61.7444 22.6863 62.1363 23.4095 61.9546 24.0988C61.7671 24.7937 61.0628 25.2795 60.33 25.1327C57.1207 24.4999 54.4339 23.0536 52.6957 20.1665C51.713 18.5338 50.9292 16.7937 50.3327 15.0027C49.2876 11.8558 46.9871 10.4321 43.8913 9.95186C43.3119 9.86147 42.7269 9.79932 42.1021 9.72022C42.1361 9.84452 42.1361 9.93491 42.1816 9.98576C45.4932 14.1214 46.5554 18.8728 46.0555 24.0479C45.9646 25.0084 45.9249 25.9688 46.0555 26.9349C46.1975 27.9519 46.6065 28.8219 47.2938 29.5903C48.0379 30.4151 48.0436 31.2287 47.3506 31.8106C46.6803 32.3699 45.9249 32.24 45.1921 31.4603C43.5846 29.7485 43.0961 27.6581 43.1472 25.3982C43.187 23.6468 43.454 21.901 43.2949 20.144C43.0336 17.2004 42.0623 14.5168 40.2844 12.1383C39.6823 11.336 38.9552 10.6637 38.052 10.1891C37.6885 9.99706 37.4386 10.0027 37.1318 10.3134C36.2457 11.2117 35.3426 12.0875 34.4224 12.9519C34.144 13.2117 34.1156 13.4547 34.1781 13.805C34.4564 15.2682 34.7064 16.7315 34.962 18.2004C35.1153 19.0818 35.0131 19.8558 34.0361 20.2117C33.4681 20.4151 33.9395 20.7146 34.0077 20.8728C35.3482 23.9462 36.7172 27.0084 38.0804 30.0705C44.039 43.4716 49.9806 56.8784 55.9619 70.2682C56.5981 71.692 56.2289 72.8841 55.4734 74.0536C54.2919 75.8841 52.5196 77.031 50.6395 78.0253C46.5724 80.1665 42.1759 81.2852 37.6658 81.9632C29.7986 83.1496 21.9712 82.9236 14.212 81.1157C10.7186 80.3021 7.33321 79.1722 4.26587 77.2682C2.88557 76.4151 1.61319 75.4264 0.732749 74.031C-0.0795272 72.7485 -0.284016 71.5055 0.386254 70.0027C7.77627 53.4773 15.1152 36.9236 22.4768 20.3417L22.4938 20.3473Z" fill="black"/>
<path id="Vector_2" d="M44.3515 68.4599C39.8754 72.3299 35.1211 75.8384 30.2701 79.2283C29.5885 79.7028 28.9182 79.9175 28.0832 79.9119C24.6126 79.8836 21.1703 79.5729 17.7565 78.9797C17.677 78.9627 17.5975 78.9062 17.5236 78.8723C17.8247 77.9062 17.8985 76.8949 18.086 75.9119C18.1484 75.5729 18.2166 75.2339 18.4154 74.9401C22.2155 72.4203 26.0156 69.9006 29.685 67.1887C33.6385 64.2622 37.4386 61.1492 41.2046 57.991C41.8408 57.7932 41.7726 58.3638 41.8635 58.652C42.5224 60.7932 43.1132 62.9571 43.7153 65.1096C43.9255 65.8667 44.1583 66.6181 44.3628 67.3751C44.4594 67.7311 44.6355 68.0983 44.3628 68.4599H44.3515Z" fill="#F4EAC7"/>
<path id="Vector_3" d="M21.0567 57.5563C24.4024 54.9914 27.7026 52.3699 30.821 49.5224C33.0477 47.4885 35.1267 45.3021 37.2909 43.2061C37.6487 43.5168 37.7055 43.9688 37.8248 44.3812C38.6996 47.432 39.5516 50.4942 40.4377 53.545C40.557 53.9518 40.7842 54.3755 40.4661 54.7993C33.7918 60.7654 26.6972 66.1835 19.1652 71.0309C18.8016 70.6976 18.9095 70.2795 18.972 69.884C19.5401 66.2174 20.0797 62.5507 20.6363 58.8784C20.7045 58.4094 20.8011 57.9575 21.0624 57.5563H21.0567Z" fill="#EF77A4"/>
<path id="Vector_4" d="M23.7037 38.6748C26.5495 35.963 29.3726 33.2229 31.9571 30.2624C32.3206 29.85 32.6899 29.4432 33.0591 29.0308C33.5362 29.0421 33.576 29.4375 33.6669 29.7539C34.5587 32.8217 35.405 35.9008 36.2968 38.963C36.3991 39.3076 36.4047 39.6466 36.2798 39.9856C33.3488 43.3697 30.111 46.4432 26.7369 49.381C25.1294 50.7822 23.5162 52.172 21.7724 53.4036C21.4657 53.076 21.5906 52.6918 21.6418 52.3245C22.3007 47.7709 23.005 43.2229 23.698 38.6748H23.7037Z" fill="#9AEFF8"/>
<path id="Vector_5" d="M21.0567 57.5562C20.8011 59.3302 20.5284 61.0985 20.2955 62.8782C19.9377 65.6013 19.3526 68.2906 19.1652 71.0307C16.2114 73.059 13.1214 74.8669 10.0256 76.6691C9.89499 76.7482 9.76435 76.7878 9.61098 76.7256C9.30993 76.3415 9.46898 75.9403 9.5769 75.5505C10.7243 71.5675 11.8376 67.5731 12.9851 63.5844C13.0873 63.2398 13.2804 62.9516 13.4622 62.6578C15.9899 60.9573 18.5233 59.2567 21.051 57.5562H21.0567Z" fill="#F493BD"/>
<path id="Vector_6" d="M14.7516 58.4092C12.1444 60.2227 9.38945 61.799 6.45844 63.3922C8.91799 57.8555 11.3094 52.4939 13.678 47.1267C13.8996 46.6239 14.2063 46.251 14.6494 45.929C16.1603 44.8273 17.6485 43.6917 19.1481 42.5674C19.4435 42.9629 19.2333 43.3583 19.1254 43.7369C17.8587 48.2679 16.5466 52.7821 15.2799 57.3131C15.1663 57.7143 14.9788 58.0646 14.7516 58.4092Z" fill="#9AEFF8"/>
<path id="Vector_7" d="M14.7516 58.4093C15.5696 55.4771 16.3932 52.5449 17.2112 49.6127C17.8644 47.268 18.5006 44.9177 19.1482 42.5675C20.6648 41.268 22.1871 39.9742 23.7037 38.6748C23.9934 38.8951 23.9196 39.2059 23.8798 39.4827C23.255 43.5166 22.6074 47.5505 21.9826 51.5901C21.8917 52.1889 21.8463 52.7991 21.7781 53.4036C19.5401 55.2172 17.1998 56.8895 14.7516 58.4093Z" fill="#BEFEFA"/>
<path id="Vector_8" d="M13.4679 62.6577C12.6499 65.5843 11.8149 68.5108 11.0254 71.443C10.5482 73.2001 9.87798 74.9119 9.61668 76.7255C7.88989 76.1323 6.28237 75.3074 4.78847 74.2622C4.23748 73.8724 3.73194 73.4261 3.31728 72.8894C2.85718 72.3018 2.78902 71.7594 3.05599 70.9741C3.86826 68.5504 5.28265 66.8724 7.72516 65.8555C9.73597 65.0193 11.565 63.7425 13.4736 62.6577H13.4679Z" fill="#EF77A4"/>
<path id="Vector_9" d="M44.3515 68.4599C43.596 65.7254 42.8405 62.9853 42.0794 60.2509C41.9033 59.6068 41.7045 58.9684 41.5397 58.3243C41.4886 58.1209 41.3977 58.0192 41.1989 57.991C42.5224 56.7932 43.8516 55.6068 45.1637 54.3921C45.5159 54.0644 45.6693 54.0362 45.8851 54.5277C47.1405 57.4147 48.4242 60.2961 49.7136 63.1661C49.8783 63.5277 49.8215 63.7367 49.5375 63.991C47.8221 65.4994 46.1521 67.0588 44.3515 68.4655V68.4599Z" fill="#EAE0B2"/>
<path id="Vector_10" d="M32.1843 25.5336C29.952 28.4489 27.4754 31.1381 24.7943 33.6523C24.5046 33.4037 24.5557 33.076 24.6012 32.7596C25.2658 28.1381 26.0042 23.528 26.6745 18.9065C26.7029 18.7031 26.8108 18.5223 26.8506 18.3246C28.3104 17.4093 29.5373 17.7709 30.2189 19.3359C30.5995 20.2116 30.9574 21.0986 31.3266 21.9856C31.5652 22.8218 31.9173 23.6184 32.1616 24.4545C32.2695 24.8161 32.3831 25.1777 32.1786 25.5449L32.1843 25.5336Z" fill="#EF77A4"/>
<path id="Vector_11" d="M22.3518 9.43742C23.4027 9.29052 24.3626 9.15493 25.3226 9.02499C25.9815 8.93459 26.4586 8.62386 26.7483 8.00239C27.1516 7.13233 27.606 6.27923 28.1173 5.25098C28.5603 6.11538 28.992 6.8555 29.3158 7.63516C29.6964 8.55041 30.2985 9.01369 31.3039 9.07584C32.1446 9.12668 32.9739 9.31312 33.9793 9.46567C33.2295 10.1945 32.5876 10.8555 31.9003 11.477C31.3096 12.0193 31.054 12.6013 31.2528 13.4261C31.4686 14.3188 31.5595 15.2453 31.7242 16.2905C30.8154 15.8216 30.0202 15.4544 29.2704 15.0024C28.4751 14.5278 27.7481 14.5504 26.9585 15.0193C26.2144 15.46 25.4248 15.8272 24.5217 16.2962C24.6978 15.2001 24.8114 14.2453 25.0158 13.3075C25.1692 12.5956 24.9534 12.0645 24.4535 11.5787C23.7662 10.912 23.1073 10.2058 22.3575 9.43742H22.3518Z" fill="#FEDA58"/>
<path id="Vector_12" d="M45.0274 71.6407C46.9189 69.991 48.8218 68.3526 50.702 66.6916C51.0712 66.3639 51.1962 66.4769 51.3609 66.8611C52.0084 68.3582 52.6617 69.8498 53.3547 71.3243C53.5592 71.765 53.4342 72.104 53.2297 72.4656C52.7412 73.33 51.98 73.9289 51.1791 74.4712C49.7704 75.426 48.2652 76.1831 46.652 76.7311C46.1635 75.991 46.1067 75.104 45.8397 74.2848C45.5557 73.4091 45.3285 72.5108 45.0331 71.6351L45.0274 71.6407Z" fill="#CE508B"/>
<path id="Vector_13" d="M40.4662 54.8047C40.0231 52.6408 39.279 50.5561 38.711 48.4261C38.2452 46.686 37.768 44.9516 37.2909 43.2171C38.035 42.364 38.7848 41.5052 39.5346 40.6465C39.83 40.7877 39.8584 41.0363 39.9493 41.2284C41.3409 44.347 42.7155 47.477 44.1299 50.59C44.3628 51.1041 44.306 51.4092 43.8743 51.7764C42.7155 52.7595 41.5965 53.799 40.4662 54.816V54.8047Z" fill="#CE508B"/>
<path id="Vector_14" d="M45.0274 71.6411C45.1296 71.692 45.3057 71.7202 45.3228 71.7937C45.7715 73.4377 46.4191 75.0309 46.6463 76.7372C42.8973 78.2513 38.9666 78.9914 34.9393 79.4321C38.3701 76.918 41.6988 74.2852 45.0217 71.6411H45.0274Z" fill="#EF76A4"/>
<path id="Vector_15" d="M26.8619 18.313C27.1971 18.6859 26.9187 19.1039 26.8676 19.4599C26.4643 22.3299 25.9701 25.183 25.5611 28.0531C25.2999 29.9175 24.8966 31.7593 24.7943 33.6463C23.5844 34.9571 22.2723 36.1604 20.892 37.2904C20.2899 36.9853 20.6704 36.522 20.767 36.1774C21.6872 32.974 22.562 29.7593 23.4879 26.5559C23.9366 25.0136 24.4081 23.4825 24.9193 21.9571C25.368 20.8949 25.8224 19.8328 26.2712 18.7763C26.3791 18.5164 26.5609 18.3469 26.8506 18.313H26.8619Z" fill="#F493BD"/>
<path id="Vector_16" d="M24.9307 21.9575C24.7489 23.5846 24.1525 25.1101 23.7151 26.6694C22.8006 29.9462 21.8406 33.2061 20.9318 36.4829C20.8693 36.7146 20.5966 37.014 20.8977 37.2852C19.6253 38.5225 18.2279 39.6072 16.8704 40.6976C16.5636 40.449 16.7227 40.3022 16.7852 40.1553C19.4378 34.1835 22.0905 28.2118 24.7432 22.2457C24.7886 22.144 24.8625 22.0536 24.925 21.9575H24.9307Z" fill="#EF76A4"/>
<path id="Vector_17" d="M36.2798 39.9855C35.3766 36.7538 34.4905 33.5166 33.5646 30.2906C33.4397 29.8612 33.4794 29.3471 33.0591 29.0307C33.3374 28.6691 33.6214 28.3075 33.985 27.8442C34.2179 28.3414 34.3996 28.7143 34.5643 29.0985C35.7458 31.7538 36.916 34.4149 38.1259 37.0589C38.3417 37.5279 38.3076 37.8386 37.9441 38.1945C37.3647 38.7651 36.8365 39.3866 36.2855 39.9855H36.2798Z" fill="#6ED8E5"/>
<path id="Vector_18" d="M18.4097 74.9404C18.3756 76.1438 18.0916 77.3077 17.9042 78.4885C17.8644 78.7314 17.7338 78.8387 17.5179 78.8783C16.1547 78.7427 14.8482 78.3698 13.3713 77.9743C15.1436 76.9065 16.7795 75.9235 18.4097 74.9404Z" fill="#F8F3E4"/>
<path id="Vector_19" d="M32.1843 25.5334C32.0139 24.3188 31.3891 23.2114 31.3323 21.9741C31.747 22.8555 32.1503 23.7368 32.5763 24.6125C32.8092 25.0871 32.4172 25.2679 32.1843 25.5391V25.5334Z" fill="#C94F88"/>
</g>
<defs>
<clipPath id="clip0_10746_58766">
<rect width="62" height="82" fill="white" transform="translate(0 0.714355)"/>
</clipPath>
</defs>
</svg>
