<svg width="77" height="85" viewBox="0 0 77 85" fill="none" xmlns="http://www.w3.org/2000/svg">
<g id="Group 261">
<path id="Vector" d="M29.0857 37.1008C29.2066 38.5572 29.2891 39.8761 29.4264 41.1896C29.5474 42.3601 29.3385 43.3988 28.6626 44.3935C26.6732 47.3337 24.7222 50.3068 22.7713 53.2744C21.9414 54.5329 20.7324 54.9011 19.32 54.7362C17.9901 54.5824 17.0998 53.7965 16.6327 52.5765C16.204 51.4444 16.4293 50.3672 17.1053 49.367C18.7925 46.8665 20.4906 44.3715 22.1338 41.8435C22.3976 41.4369 22.5789 40.8543 22.535 40.3762C22.2767 37.568 21.848 34.7762 21.6666 31.9679C21.5897 30.7644 21.8975 29.5169 22.1228 28.3078C22.5569 26.0107 23.0625 23.73 23.5352 21.4383C23.5791 21.224 23.5846 21.0042 23.6176 20.7239C22.3481 20.8283 21.3259 21.1581 20.8258 22.4275C20.6005 23.0046 20.2928 23.5432 19.996 24.0927C19.6168 24.8016 19.2926 25.4227 19.6663 26.3294C19.8806 26.8515 19.5893 27.6319 19.386 28.2529C19.2046 28.797 18.8199 29.2806 18.5067 29.8246C18.7595 30.0005 18.9903 30.1544 19.2156 30.3138C21.0127 31.5777 21.5238 33.8089 20.4027 35.6939C19.2541 37.6284 18.078 39.5464 16.8745 41.4478C15.7314 43.2559 13.698 43.734 11.8735 42.6514C8.67502 40.7554 5.47659 38.8539 2.28364 36.9415C0.10188 35.6335 -0.469669 33.3034 0.843782 31.1161C1.78353 29.5444 2.73427 27.9781 3.68501 26.4119C5.20729 23.9059 7.30113 23.3563 9.85659 24.7907C9.97749 24.8566 10.1039 24.9225 10.3017 25.027C10.582 24.5598 10.8458 24.1037 11.1206 23.6586C11.5712 22.9276 12.0548 22.2572 13.033 22.1582C13.2364 22.1363 13.4562 21.823 13.5826 21.6032C14.4289 20.1414 15.2643 18.6685 16.0831 17.1902C16.891 15.7339 18.0725 14.7776 19.7102 14.382C21.4633 13.9588 23.1944 13.4422 24.9585 13.096C27.5085 12.5959 29.9266 13.4532 32.3721 13.9753C34.9166 14.5139 37.0654 15.6789 38.714 17.7233C39.3131 18.4707 40.011 19.1357 40.6485 19.8501C41.4454 20.7514 42.4456 21.18 43.6381 21.18C44.5119 21.18 45.3857 21.169 46.2595 21.18C48.0016 21.1965 49.5404 22.51 49.6778 24.0872C49.8646 26.2305 48.8644 27.8297 46.908 28.066C44.2151 28.3848 41.4563 28.5716 38.9393 27.2966C37.6039 26.6207 36.4334 25.6095 35.1914 24.7467C35.01 24.6203 34.8561 24.4609 34.5923 24.2301C34.1967 26.4393 33.812 28.5332 33.4712 30.6325C33.4492 30.7809 33.713 31.0392 33.8999 31.1491C34.8067 31.6657 35.7244 32.1658 36.6532 32.6274C38.3788 33.4847 39.346 35.3038 38.9888 37.1613C38.4063 40.2058 37.8128 43.2449 37.2027 46.284C36.8181 48.2075 35.2078 49.422 33.5427 49.0867C31.5258 48.6801 30.3827 46.9984 30.7454 44.965C31.1026 42.9701 31.4378 40.9697 31.8335 38.9803C31.9599 38.3373 31.8445 37.9856 31.1686 37.8207C30.5201 37.6614 29.8936 37.3976 29.0857 37.1228V37.1008ZM44.7152 25.2523C45.2483 25.2523 45.7869 25.2358 46.32 25.2523C46.9355 25.2743 47.2102 24.961 47.1828 24.3785C47.1553 23.8124 46.8146 23.6201 46.2705 23.6366C45.3967 23.664 44.5229 23.6586 43.6491 23.6586C41.6432 23.6586 39.9835 22.9002 38.6591 21.3889C37.9337 20.5645 37.1533 19.7841 36.4389 18.9488C35.3892 17.7123 34.0483 17.0089 32.504 16.6352C31.3829 16.3604 30.2508 16.1296 29.1352 15.8273C27.3986 15.3547 25.7004 15.3657 23.9803 15.9152C22.7493 16.3109 21.4908 16.6297 20.2323 16.9319C19.4299 17.1243 18.8694 17.5749 18.4957 18.2839C17.6549 19.8776 16.8195 21.4768 15.9732 23.0705C15.7094 23.5651 15.6929 24.0048 16.248 24.2851C16.847 24.5873 17.1218 24.1861 17.3471 23.7135C17.7593 22.8507 18.1824 21.9934 18.5891 21.1251C19.2816 19.6523 20.4301 18.7345 21.9909 18.3168C22.9416 18.064 23.9034 17.8332 24.8596 17.5969C26.3929 17.2177 27.0688 17.8717 26.7501 19.4324C25.9917 23.1585 25.2333 26.8845 24.4749 30.6105C24.1836 32.0339 24.5738 32.6988 25.9532 33.1879C28.5032 34.0892 31.0532 34.985 33.5976 35.8918C34.6638 36.271 34.8726 36.6557 34.6693 37.7438C34.2021 40.2663 33.7405 42.7833 33.2734 45.3058C33.1854 45.7839 33.1909 46.2675 33.7735 46.3829C34.323 46.4928 34.4769 46.0642 34.5648 45.6135C35.1199 42.7943 35.6805 39.9805 36.23 37.1558C36.4718 35.9138 36.1696 35.2763 35.054 34.6388C33.8559 33.9518 32.6469 33.2869 31.4488 32.5999C30.5421 32.0833 30.3717 31.6821 30.5915 30.649C31.24 27.5934 31.883 24.5324 32.537 21.4768C32.8557 19.982 33.9548 19.6193 35.1309 20.625C35.9882 21.3559 36.84 22.1033 37.6754 22.8562C39.6758 24.6698 42.0004 25.56 44.7152 25.2523ZM16.4953 36.8041C12.5274 34.4355 8.63106 32.0998 4.67972 29.7422C4.09168 30.7149 3.55312 31.5997 3.02005 32.49C2.43751 33.4792 2.61336 34.2541 3.59708 34.8421C6.66363 36.6777 9.73569 38.5022 12.8132 40.3213C13.6431 40.8159 14.0607 40.7224 14.5718 39.9201C15.2093 38.9254 15.8083 37.9087 16.4898 36.8041H16.4953ZM24.6673 35.595C24.8541 37.3646 25.0025 39.0408 25.2113 40.7169C25.3048 41.4588 25.1838 42.0743 24.7497 42.7008C23.2439 44.8771 21.7821 47.0919 20.3037 49.2901C19.9136 49.8726 19.4684 50.4332 19.1552 51.0597C19.0178 51.329 19.0288 51.8071 19.1881 52.0434C19.309 52.2192 19.8256 52.2742 20.0784 52.1698C20.4137 52.0324 20.7379 51.7411 20.9412 51.4334C22.7713 48.6911 24.5958 45.9433 26.3654 43.1625C26.6457 42.7228 26.7831 42.1073 26.7721 41.5798C26.7336 40.2553 26.5687 38.9364 26.4533 37.6174C26.305 35.9412 26.6622 36.1776 24.6563 35.5895L24.6673 35.595ZM17.8362 34.5069C18.3748 33.5452 18.2319 33.0176 17.2866 32.4515C14.2201 30.616 11.1426 28.8079 8.0815 26.9669C7.15274 26.4064 6.69662 26.4943 6.13607 27.5165C10.0325 29.8466 13.9343 32.1768 17.8362 34.5124V34.5069ZM12.4835 26.3349C13.698 27.0493 14.8466 27.7253 16.0721 28.4397C16.3304 27.9836 16.5667 27.5714 16.847 27.0768C15.2148 27.0494 14.1047 26.3569 13.2639 25.0489C12.9781 25.5161 12.7528 25.8898 12.4835 26.3349Z" fill="#2673E5"/>
<path id="Vector_2" d="M62.5375 39.2611C62.2737 38.5137 61.9935 37.8377 61.7901 37.1397C61.4769 36.0626 62.3232 35.1888 63.4058 35.4966C67.2528 36.5957 71.0887 37.7168 74.9191 38.8544C75.8314 39.1237 76.1831 39.9865 75.7105 40.8053C73.6936 44.295 71.6602 47.7738 69.5939 51.2305C68.9784 52.2527 67.6155 52.0603 67.1044 50.9172C66.8406 50.3292 66.6372 49.7137 66.3735 49.0158C64.9611 49.5763 63.5872 50.1204 62.2188 50.6754C43.2919 58.3253 24.3705 65.9807 5.44912 73.6306C4.58082 73.9823 3.94331 73.79 3.5806 72.9272C2.55842 70.4871 1.56372 68.0361 0.601993 65.5685C0.250274 64.6727 0.612984 64.0847 1.62418 63.678C5.98769 61.9304 10.3567 60.1828 14.7202 58.4352C30.4322 52.1483 46.1386 45.8613 61.8506 39.5688C62.0594 39.4864 62.2572 39.3819 62.543 39.2501L62.5375 39.2611ZM65.3787 38.684C65.3403 38.7445 65.2798 38.7939 65.2853 38.8324C65.626 40.7339 65.6205 40.7449 63.8125 41.4703C44.1217 49.4114 24.431 57.3471 4.74019 65.2883C4.33351 65.4531 3.93232 65.64 3.47619 65.8378C4.17962 67.514 4.85558 69.1132 5.55353 70.7784C5.93272 70.6355 6.27346 70.5091 6.60869 70.3772C17.5505 65.9642 28.4922 61.5457 39.434 57.1328C48.3643 53.5277 57.2947 49.928 66.2251 46.3229C66.8626 46.0646 67.522 45.7788 68.1156 46.3504C68.3958 46.6197 68.5552 47.0099 68.8135 47.4165C70.1105 45.2073 71.3745 43.064 72.6714 40.8548C70.1709 40.1074 67.7693 39.3929 65.3787 38.6785V38.684Z" fill="#2673E5"/>
<path id="Vector_3" d="M76.0842 70.4866C76.0842 74.6577 76.0842 78.8344 76.0842 83.0056C76.0842 84.3465 75.7215 84.7092 74.386 84.7092C70.8359 84.7092 67.2802 84.7147 63.7246 84.7092C62.4166 84.7092 62.0319 84.308 62.0319 82.9726C62.0319 74.6248 62.0319 66.2824 62.0319 57.9346C62.0319 56.6157 62.4276 56.231 63.7521 56.231C67.3077 56.231 70.8579 56.231 74.4135 56.231C75.705 56.231 76.0842 56.5992 76.0842 57.8796C76.0842 62.0783 76.0842 66.2824 76.0842 70.4811V70.4866ZM73.4133 82.0658V58.8963H64.7303V82.0658H73.4133Z" fill="#2673E5"/>
<path id="Vector_4" d="M56.6462 74.8613C56.6462 77.5376 56.6462 80.2195 56.6462 82.8958C56.6462 84.3797 56.3275 84.7039 54.8821 84.7094C51.3594 84.7094 47.8312 84.7094 44.3086 84.7094C42.9786 84.7094 42.5994 84.3302 42.5994 82.9948C42.5939 77.5266 42.5939 72.053 42.5994 66.5849C42.5994 65.2769 43.0061 64.8922 44.3415 64.8867C47.8642 64.8867 51.3924 64.8867 54.9151 64.8867C56.2835 64.8867 56.6462 65.2549 56.6517 66.6563C56.6517 69.3931 56.6517 72.1245 56.6517 74.8613H56.6462ZM45.2758 82.033H53.9973V67.5796H45.2758V82.033Z" fill="#2673E5"/>
<path id="Vector_5" d="M30.1794 84.7095C28.3713 84.7095 26.5688 84.715 24.7607 84.7095C23.5736 84.704 23.178 84.3193 23.1725 83.1432C23.1615 79.5051 23.1615 75.867 23.1725 72.2289C23.1725 71.0748 23.6011 70.6682 24.7827 70.6682C28.3933 70.6627 32.0039 70.6627 35.6145 70.6682C36.7741 70.6682 37.2083 71.0913 37.2138 72.2509C37.2302 75.889 37.2302 79.5271 37.2138 83.1652C37.2138 84.3248 36.7851 84.704 35.5925 84.7095C33.7845 84.7205 31.9819 84.7095 30.1739 84.7095H30.1794ZM25.8104 82.0441H34.5374V73.372H25.8104V82.0441Z" fill="#2673E5"/>
<path id="Vector_6" d="M10.626 84.7097C8.79593 84.7097 6.9604 84.7206 5.13036 84.7097C4.01475 84.6987 3.60808 84.281 3.60258 83.1709C3.59159 81.4233 3.59159 79.6757 3.60258 77.9281C3.60808 76.9169 4.03125 76.4607 5.03695 76.4552C8.75747 76.4387 12.478 76.4387 16.1985 76.4552C17.2042 76.4552 17.6384 76.9224 17.6494 77.9171C17.6658 79.6922 17.6658 81.4673 17.6494 83.2423C17.6384 84.2755 17.1987 84.6987 16.1271 84.7097C14.297 84.7206 12.4615 84.7097 10.6315 84.7097H10.626ZM6.27894 82.0608H14.9675V79.1426H6.27894V82.0608Z" fill="#2673E5"/>
<path id="Vector_7" d="M33.147 12.0848C29.8661 12.0958 27.3986 9.58981 27.4151 6.26496C27.4261 3.14345 29.9266 0.725382 33.1415 0.71439C36.318 0.703399 38.9174 3.28634 38.9229 6.45181C38.9229 9.56782 36.3564 12.0793 33.1525 12.0848H33.147ZM33.2404 9.40295C34.9056 9.38646 36.2575 8.02905 36.252 6.38036C36.2465 4.77015 34.8287 3.30832 33.2514 3.29183C31.5478 3.27535 30.1464 4.7097 30.1794 6.44631C30.2069 8.11148 31.5643 9.41944 33.2404 9.40295Z" fill="#2673E5"/>
</g>
</svg>
