<svg width="80" height="95" viewBox="0 0 80 95" fill="none" xmlns="http://www.w3.org/2000/svg">
<g id="Layer_1" clip-path="url(#clip0_10904_55989)">
<path id="Vector" d="M49.0889 29.8424C51.5424 29.8424 53.8499 29.8424 56.1573 29.8424C59.268 29.8424 62.386 29.8424 65.4967 29.8424C67.2346 29.8424 67.6581 30.3944 67.293 32.0796C66.6577 35.0086 65.2996 37.5991 63.642 40.0644C62.4006 41.9116 61.1228 43.7441 59.9544 45.6428C58.8591 47.4237 58.4283 49.4181 58.4429 51.5155C58.4502 53.2228 58.4429 54.9302 58.4429 56.6449C58.4429 60.2509 57.5447 61.4799 54.1565 62.4882C54.0981 62.9076 54.0762 63.3418 53.9813 63.7613C53.5943 65.5128 52.2288 66.7197 50.4544 66.7713C48.6654 66.8228 46.8763 66.8301 45.0946 66.7713C42.9186 66.6977 41.6919 65.2405 41.4217 62.5102C41.2537 62.4514 41.0566 62.3778 40.8594 62.3263C38.4789 61.7449 37.1134 60.0375 37.0988 57.5869C37.0842 55.6587 37.0477 53.7306 37.1061 51.8098C37.1792 49.2341 36.4855 46.8939 35.0981 44.767C33.8786 42.8978 32.5715 41.0947 31.3594 39.2255C27.7302 33.6251 26.6422 27.5684 28.716 21.1732C30.6949 15.0871 35.2514 11.6135 41.1807 9.90615C43.145 9.33948 45.2334 9.1923 47.2853 8.97152C48.6069 8.83169 49.0889 9.37628 49.0962 10.7009C49.1035 12.3494 49.1181 13.9979 49.0962 15.639C49.067 17.6849 47.5481 18.7446 45.6423 18.0381C44.7806 17.7217 44.0577 17.81 43.5101 18.568C43.0646 19.1862 43.0793 19.8632 43.532 20.4741C44.065 21.1879 44.766 21.2909 45.5985 21.0039C47.6577 20.2754 49.0962 21.3057 49.1108 23.4987C49.1254 25.574 49.1108 27.6494 49.1108 29.8498L49.0889 29.8424ZM46.4528 23.5355C43.2472 24.139 40.874 22.6745 40.6184 19.9736C40.5016 18.7373 40.8229 17.6334 41.648 16.6988C42.9551 15.2122 44.6127 14.9914 46.5039 15.4624V11.7018C36.6242 11.4148 27.8909 21.4455 30.6292 29.8424C31.8997 29.8424 33.1922 29.8056 34.4847 29.8498C36.427 29.9234 37.4055 31.432 36.7702 33.2718C36.7264 33.3896 36.6826 33.5073 36.6461 33.6251C36.3978 34.4125 36.6169 35.1558 37.3106 35.4649C37.8217 35.693 38.5958 35.693 39.0996 35.4649C39.786 35.1558 39.9905 34.4199 39.7568 33.6251C38.9901 31.0567 39.8955 29.8424 42.5681 29.8424C43.8533 29.8424 45.1384 29.8424 46.4601 29.8424V23.5355H46.4528ZM46.5039 50.1614C46.5039 48.8588 46.4747 47.6224 46.5112 46.3934C46.5624 44.7376 48.0301 43.6999 49.6073 44.1709C49.841 44.2445 50.0674 44.3549 50.301 44.4211C51.0458 44.6272 51.6446 44.3696 52.0754 43.7514C52.4844 43.1627 52.4844 42.5224 52.09 41.919C51.6665 41.2861 51.0605 41.0579 50.3229 41.2272C50.1185 41.2714 49.9213 41.3891 49.7169 41.4554C48.0593 41.9999 46.5405 40.9476 46.5112 39.1887C46.4747 37.2974 46.5112 35.3987 46.4966 33.5073C46.4966 33.1762 46.4674 32.8524 46.4528 32.5138H42.2468C42.6265 35.9801 41.2829 38.1437 38.6615 38.3792C37.4712 38.4822 36.3905 38.1952 35.4778 37.4078C33.9516 36.0978 33.7033 34.3978 34.1634 32.5286H30.9505C31.5273 33.8311 31.9289 35.0454 32.5715 36.1125C33.8202 38.1731 35.2003 40.1601 36.5439 42.1692C37.8436 44.1121 38.939 46.1432 39.4136 48.4687C39.5304 49.0354 39.6108 49.6094 39.6984 50.1614H46.4966H46.5039ZM49.1619 46.8571V50.1687H55.9017C56.15 46.6584 57.8441 43.8324 59.75 41.08C60.8964 39.4242 62.0209 37.7536 63.0359 36.0168C63.6639 34.9424 64.0582 33.7355 64.5913 32.5212H49.1546V38.8134C51.2868 38.2246 53.0466 38.6809 54.2588 40.5134C55.2592 42.022 55.2592 43.6558 54.2588 45.1571C53.0393 46.9822 51.2868 47.4458 49.1619 46.8571ZM55.7411 57.6678H39.7349C39.8152 59.0146 40.4943 59.7358 41.743 59.7947C42.5097 59.8315 43.2837 59.8094 44.0504 59.8094C47.2195 59.8094 50.3887 59.8167 53.5578 59.8094C55.0328 59.8094 55.8141 59.0293 55.7411 57.6752V57.6678ZM39.7495 52.8917V54.9375H55.7776V52.8917H39.7495ZM51.4402 62.4734H44.1308C44.065 63.7319 44.4155 64.1514 45.5474 64.1661C47.0516 64.1881 48.5558 64.1881 50.0601 64.1661C51.1627 64.1514 51.5351 63.6804 51.4475 62.4734H51.4402Z" fill="#2673E5"/>
<path id="Vector_2" d="M22.7138 85.8464C23.0862 87.5022 22.5604 88.7975 21.3994 89.9234C20.0193 91.2555 18.6903 92.6464 17.3321 94.0005C16.3902 94.9425 15.8206 94.9572 14.9078 94.0299C10.198 89.2905 5.48811 84.5438 0.778256 79.7897C-0.0541836 78.9508 -0.0614858 78.2958 0.749048 77.4715C2.22407 75.9703 3.7064 74.4763 5.19603 72.9897C6.15991 72.0257 7.31364 71.5988 8.64993 71.9374C9.18298 72.0772 9.46776 71.9153 9.82556 71.5473C11.6511 69.656 13.4328 67.7131 15.3825 65.9616C17.5147 64.0409 19.9463 62.5911 22.8744 62.1716C25.2841 61.8257 27.5186 62.466 29.7238 63.2976C32.4329 64.3132 35.1128 65.4171 37.851 66.3517C40.582 67.2863 43.4299 67.6248 46.3142 67.6616C49.79 67.7058 51.3015 69.0673 51.7397 72.6365C52.4333 72.3642 53.1197 72.1361 53.7696 71.8196C58.1363 69.7296 62.4737 67.5807 66.855 65.5422C67.8554 65.0785 69.0164 64.7106 70.0971 64.7106C72.6237 64.7106 74.252 67.2201 73.2809 69.5677C72.8866 70.5317 72.2075 71.5326 71.3823 72.1213C68.1986 74.4027 64.9419 76.5884 61.6267 78.6785C59.4653 80.0399 57.1651 81.1806 54.9161 82.4096C50.3011 84.9338 45.343 85.6698 40.1585 85.2797C36.5294 85.0074 32.9002 84.7793 29.2638 84.6616C26.6423 84.5732 24.3275 85.081 22.6919 85.8464H22.7138ZM11.1618 73.5785C14.5135 76.9564 17.6242 80.0988 20.7641 83.2191C20.9394 83.3958 21.3921 83.4767 21.6331 83.381C25.0797 82.0417 28.665 81.8871 32.2868 82.1005C35.1201 82.2698 37.946 82.52 40.7719 82.6893C43.554 82.8585 46.3799 82.9468 49.0087 81.9607C51.8273 80.9083 54.624 79.7088 57.2235 78.2001C61.4076 75.7642 65.4238 73.0486 69.4765 70.3993C70.0168 70.046 70.4769 69.4647 70.7981 68.8833C71.2801 68.0296 70.8201 67.2495 69.8708 67.301C69.2501 67.3305 68.6148 67.5733 68.0452 67.8456C63.2843 70.0976 58.5671 72.4525 53.7696 74.6235C49.1328 76.7209 44.3207 78.1265 39.1581 77.133C36.9602 76.7062 34.7988 76.0954 32.6446 75.4625C31.8049 75.2122 31.5566 74.4542 31.8633 73.7551C32.1627 73.056 32.8564 72.7542 33.6377 73.1075C35.7845 74.0642 38.0555 74.4542 40.363 74.6529C42.6996 74.8516 45.0509 74.9841 47.3219 74.1967C48.6143 73.7551 49.2204 72.8867 49.0233 71.8859C48.8115 70.8114 48.0521 70.3625 46.672 70.2595C44.4302 70.0902 42.1812 69.9283 39.976 69.5603C36.2081 68.9348 32.7688 67.2716 29.2273 65.9248C27.7449 65.3582 26.175 64.8945 24.605 64.7253C22.1442 64.4603 19.9828 65.5422 18.1646 67.0876C15.7695 69.1188 13.535 71.3486 11.1472 73.5711L11.1618 73.5785ZM16.2222 91.4321C17.2591 90.3797 18.3909 89.2464 19.5228 88.1057C20.5231 87.0901 20.5231 86.7148 19.5374 85.7139C17.5147 83.6754 15.4847 81.6295 13.462 79.591C11.9359 78.0529 10.4097 76.5222 8.8909 74.9841C8.34324 74.4322 7.74446 74.1672 7.11648 74.7707C5.83861 76.0144 4.60456 77.3096 3.40701 78.5239C7.68605 82.8365 11.9213 87.1122 16.2149 91.4394L16.2222 91.4321Z" fill="#2673E5"/>
<path id="Vector_3" d="M67.3083 26.4571C63.8544 26.4571 60.4078 26.4571 56.9539 26.4571C55.4935 26.4571 55.1211 26.1039 55.1211 24.6688C55.1211 17.6481 55.1211 10.6273 55.1211 3.61395C55.1211 2.25249 55.5446 1.83301 56.8955 1.83301C63.8617 1.83301 70.8279 1.83301 77.7868 1.83301C79.145 1.83301 79.5831 2.24513 79.5831 3.59187C79.5831 10.6421 79.5904 17.6922 79.5831 24.7424C79.5831 26.0597 79.1669 26.4571 77.8526 26.4571C74.3402 26.4571 70.8279 26.4571 67.3156 26.4571H67.3083ZM57.7645 23.7784H76.9325V4.50442H71.58C71.58 6.23385 71.5946 7.91177 71.58 9.58232C71.5654 10.723 71.1273 11.1498 69.9955 11.1572C68.2065 11.1719 66.4175 11.1719 64.6284 11.1572C63.5988 11.1498 63.168 10.7157 63.1242 9.70007C63.1096 9.29531 63.1242 8.89055 63.1242 8.48579C63.1242 7.16112 63.1242 5.83645 63.1242 4.48971H57.7791V23.7857L57.7645 23.7784ZM68.944 4.49706H65.7749V8.48579H68.944V4.49706Z" fill="#2673E5"/>
<path id="Vector_4" d="M22.8746 44.3696C22.4511 44.8333 22.2247 45.1129 21.9691 45.3705C21.4288 45.893 20.8154 45.9813 20.2239 45.4882C19.6471 45.0099 19.5229 44.3549 19.9903 43.7514C21.0345 42.4121 22.1152 41.0947 23.2251 39.8069C23.7654 39.1813 24.5541 39.1666 25.0944 39.7774C26.2189 41.0506 27.2997 42.3679 28.3439 43.7073C28.7966 44.2887 28.7382 44.9584 28.1613 45.4588C27.5479 45.996 26.9126 45.8856 26.3504 45.3263C26.0948 45.0687 25.8758 44.7817 25.5179 44.3696C25.4887 44.7965 25.4595 45.0614 25.4595 45.319C25.4595 48.1081 25.4595 50.9047 25.4595 53.6938C25.4595 54.8198 25.0287 55.3791 24.2036 55.3865C23.3492 55.4012 22.8746 54.7977 22.8746 53.6423C22.8746 50.6397 22.8746 47.6298 22.8746 44.3549V44.3696Z" fill="#2673E5"/>
<path id="Vector_5" d="M72.6529 44.3107C72.6529 47.4678 72.6529 50.3453 72.6529 53.2302C72.6529 53.5687 72.6675 53.9146 72.631 54.2531C72.558 54.9302 72.1709 55.3276 71.4991 55.3938C70.7835 55.46 70.3089 55.1141 70.1336 54.415C70.0533 54.0912 70.0606 53.7379 70.0606 53.3994C70.0606 50.4851 70.0606 47.5709 70.0606 44.377C69.6809 44.7964 69.4619 45.054 69.2282 45.2969C68.6878 45.8709 68.0745 45.996 67.4173 45.5103C66.8112 45.054 66.7309 44.3034 67.2712 43.6189C68.2716 42.3605 69.2866 41.1168 70.3381 39.8952C70.9661 39.1592 71.762 39.1666 72.4046 39.9099C73.4561 41.1242 74.4784 42.3679 75.4788 43.6263C75.9607 44.2371 75.9534 44.8995 75.3693 45.4661C74.8143 45.996 74.0914 45.915 73.4926 45.2821C73.2663 45.0393 73.0545 44.7817 72.6529 44.3181V44.3107Z" fill="#2673E5"/>
<path id="Vector_6" d="M22.7289 26.2658C22.1156 26.2658 21.4949 26.2731 20.8815 26.2658C20.071 26.2511 19.5817 25.7948 19.5598 25.0073C19.5306 24.2125 20.0272 23.7121 20.8158 23.6827C22.079 23.6312 23.3423 23.6312 24.5983 23.6753C25.3796 23.7048 25.8761 24.1684 25.8688 24.9853C25.8542 25.7874 25.3796 26.2363 24.5764 26.2584C23.963 26.2805 23.3423 26.2584 22.7289 26.2584V26.2658Z" fill="#2673E5"/>
<path id="Vector_7" d="M30.1254 6.28528C30.5635 6.55757 30.9505 6.70476 31.2061 6.97705C31.9217 7.70562 32.5935 8.47098 33.258 9.25107C33.864 9.95756 33.8421 10.7008 33.2287 11.2234C32.6665 11.7017 31.9436 11.6355 31.3448 10.9952C30.6292 10.2298 29.8771 9.47184 29.271 8.61817C29.0154 8.25756 28.957 7.60995 29.0885 7.17575C29.1907 6.82986 29.7164 6.60909 30.1181 6.28528H30.1254Z" fill="#2673E5"/>
<path id="Vector_8" d="M46.482 3.63595C46.482 3.04721 46.4455 2.45847 46.4893 1.86973C46.5405 1.14116 47.0005 0.743759 47.7015 0.714322C48.4025 0.684885 48.9355 1.07493 48.9794 1.78878C49.0524 3.01777 49.0524 4.26149 48.994 5.49785C48.9574 6.2117 48.4317 6.62382 47.7453 6.61646C47.0151 6.6091 46.5331 6.1749 46.4893 5.40218C46.4528 4.81344 46.4893 4.2247 46.4893 3.63595H46.482Z" fill="#2673E5"/>
</g>
<defs>
<clipPath id="clip0_10904_55989">
<rect width="79.4396" height="94" fill="white" transform="translate(0.150391 0.714355)"/>
</clipPath>
</defs>
</svg>
