<svg width="89" height="85" viewBox="0 0 89 85" fill="none" xmlns="http://www.w3.org/2000/svg">
<g id="Group 258">
<path id="Vector" d="M0.0707998 40.1591C0.322208 38.4328 0.484227 36.6897 0.847372 34.9913C2.63516 26.6334 6.8253 19.6275 12.9541 13.7389C15.3229 11.4651 17.932 9.50967 20.7813 7.87831C21.8986 7.24141 22.8652 7.39225 23.4127 8.28615C23.9769 9.20798 23.597 10.1242 22.5132 10.8673C20.4125 12.3087 18.351 13.8004 16.3118 15.3256C16.0101 15.5491 15.7866 16.0742 15.781 16.4653C15.7363 19.4766 15.7699 22.4879 15.7475 25.4992C15.7419 26.2144 15.9933 26.7451 16.4961 27.2423C18.9264 29.6391 21.2952 32.0917 23.7535 34.4605C25.3848 36.036 26.8933 37.6115 26.4575 40.3491C26.8318 40.0139 27.0218 39.863 27.195 39.6898C34.6199 32.0638 42.1789 24.583 50.0843 17.4598C50.6653 16.9346 51.0899 16.2195 51.5425 15.5602C51.9503 14.9568 51.8497 14.3758 51.319 13.8562C50.4195 12.9735 49.5647 12.0349 48.6317 11.1913C47.2015 9.88958 46.2685 8.3923 46.4584 6.24695C45.4528 6.1408 44.4974 5.95085 43.5477 5.95643C41.2291 5.97319 38.9106 6.05699 36.592 6.16873C35.4579 6.2246 34.6199 5.73854 34.469 4.77202C34.307 3.7161 34.916 2.91718 36.0892 2.77193C44.0896 1.78305 51.7324 3.01775 59.0121 6.4816C59.7104 6.81122 60.4144 7.14643 61.0625 7.55986C61.5876 7.88948 61.9508 7.81127 62.4312 7.47047C65.6269 5.17986 68.9287 3.05686 72.6384 1.6769C74.51 0.984134 76.4375 0.520426 78.4431 0.794181C82.1919 1.31376 84.8122 4.74409 84.449 8.63253C84.3596 9.62141 84.1417 10.5991 83.9686 11.6774C84.5105 11.4148 85.03 11.1522 85.5608 10.912C86.572 10.4483 87.5441 10.75 87.9799 11.655C88.4045 12.5266 88.0861 13.4707 87.1251 13.968C85.2423 14.9401 83.3484 15.8843 81.4433 16.8117C80.4935 17.2754 79.7114 17.0799 79.108 16.2195C77.9571 14.5769 76.8341 12.9176 75.7279 11.2416C75.1469 10.3589 75.3536 9.35324 76.1525 8.8169C76.9682 8.26939 77.918 8.44817 78.5605 9.31972C79.1024 10.0572 79.5996 10.8226 80.2086 11.7165C80.879 9.88399 81.4098 8.18 80.7058 6.38662C80.1527 4.96756 79.0633 4.15747 77.5213 4.21333C76.5324 4.24686 75.5156 4.40329 74.5715 4.6938C71.0294 5.79441 67.979 7.81685 64.923 9.89516C85.6837 24.7506 88.2146 54.2157 70.8171 72.0768C53.1682 90.2062 23.6026 88.815 8.04324 67.9984C7.90357 68.1828 7.75272 68.3392 7.65216 68.518C6.2778 70.9036 4.98164 73.3171 4.50117 76.0826C3.92014 79.4235 6.33366 81.3119 9.41202 80.647C10.7864 80.3509 12.0825 79.6638 13.401 79.1162C14.0714 78.8369 14.7642 78.7699 15.2391 79.2894C15.6022 79.6861 15.8201 80.3174 15.8704 80.8649C15.9039 81.2057 15.6022 81.7477 15.2894 81.932C12.468 83.5969 9.49023 84.7534 6.13812 83.8986C2.63516 83.0103 0.573619 79.8258 0.998219 76.1999C1.3446 73.2333 2.54578 70.5851 3.96484 68.0152C4.49 67.0654 5.10455 66.1603 5.61854 65.1994C5.74704 64.9592 5.76939 64.529 5.64089 64.3055C2.97038 59.6852 1.25522 54.7408 0.48423 49.4668C0.333385 48.4221 0.204887 47.3773 0.0652161 46.327C0.0652161 44.2599 0.0652161 42.1983 0.0652161 40.1312L0.0707998 40.1591ZM27.1112 78.3397C27.1614 78.4402 27.2173 78.5408 27.2676 78.6358C34.24 81.3622 41.4079 82.0158 48.7546 80.5297C54.118 79.4459 59.0121 77.2838 63.5318 73.9763C62.3642 72.8366 61.258 71.831 60.2356 70.7471C57.9226 68.3001 57.9618 64.7189 60.2915 62.2942C60.9842 61.568 61.7161 60.8808 62.4145 60.1601C63.7218 58.8136 65.2917 58.1544 67.1856 58.1823C69.912 58.2214 72.6328 58.2047 75.3592 58.1823C75.6162 58.1823 76.0352 58.0371 76.1023 57.8583C76.7447 56.1264 77.3314 54.3777 77.823 52.9419C76.6274 52.0089 75.605 51.2993 74.6832 50.4725C73.5993 49.4948 72.644 48.3718 71.549 47.4109C71.1188 47.0366 70.4651 46.7851 69.8953 46.7293C68.7556 46.6231 67.6047 46.7069 66.4593 46.6958C63.4983 46.679 61.4982 44.7068 61.4479 41.7458C61.4256 40.539 61.42 39.3379 61.4479 38.1311C61.4647 37.3936 61.2189 36.8294 60.6825 36.3042C58.0679 33.7287 55.5371 31.0637 52.8721 28.5441C51.0899 26.8568 49.6709 25.097 49.9446 22.4712C49.9446 22.46 49.9055 22.4432 49.8105 22.3706C41.8604 29.6838 34.2121 37.321 26.5413 45.3549C27.2341 45.5002 27.681 45.6734 28.1336 45.6789C30.9437 45.7069 33.7539 45.6789 36.5641 45.6957C39.609 45.7181 41.5532 47.6846 41.5588 50.7239C41.5644 54.3665 41.5252 58.0091 41.5755 61.6518C41.5979 63.3446 41.0001 64.6854 39.8101 65.8642C35.8378 69.7974 31.8991 73.764 27.938 77.7139C27.6978 77.9542 27.3905 78.133 27.1167 78.3341L27.1112 78.3397ZM78.4376 49.2378C80.717 35.7232 74.7 20.2699 61.8279 12.0796C59.135 14.3311 56.4086 16.605 53.7046 18.9068C53.5258 19.0576 53.4364 19.3984 53.4308 19.6554C53.4029 20.8007 53.4532 21.9516 53.4085 23.0913C53.3749 23.8735 53.6487 24.4489 54.1962 24.9908C57.1684 27.9351 60.0959 30.9241 63.0849 33.8516C64.3364 35.0751 64.9341 36.4942 64.8783 38.2317C64.8447 39.3211 64.8671 40.4105 64.8783 41.5C64.8895 42.8185 65.3308 43.2598 66.627 43.2654C67.7164 43.2654 68.8058 43.2934 69.8953 43.2654C71.5434 43.2151 72.901 43.7962 74.0351 44.9862C75.1637 46.1706 76.3369 47.3047 77.499 48.4556C77.756 48.707 78.0521 48.9249 78.4376 49.2489V49.2378ZM17.5241 55.2492C18.9655 56.6906 20.3064 58.0594 21.6863 59.3947C22.8316 60.4953 23.3512 61.797 23.3344 63.3893C23.3009 67.5738 23.3177 71.7639 23.3344 75.9485C23.3344 76.2334 23.4853 76.5239 23.5691 76.8089C23.8317 76.6804 24.1613 76.6133 24.3568 76.4178C28.7481 72.0489 33.1338 67.68 37.4859 63.2664C37.8435 62.9088 38.0893 62.2719 38.0949 61.7635C38.1452 58.1209 38.1228 54.4782 38.1228 50.8412C38.1228 49.5618 37.715 49.1484 36.4189 49.1428C34.0668 49.1372 31.7147 49.1149 29.3627 49.1484C27.5358 49.1763 25.7368 49.1931 24.3513 47.6511C22.0439 50.2211 19.8259 52.6904 17.5297 55.2492H17.5241ZM3.64638 40.3267C4.04863 40.3267 4.32798 40.3267 4.60732 40.3267C6.84206 40.3267 9.0768 40.3267 11.3115 40.3267C14.4737 40.3323 16.4123 42.2598 16.4179 45.3996C16.4179 47.0645 16.4179 48.7238 16.4179 50.3887C16.4179 50.6233 16.4514 50.8635 16.4738 51.2043C18.6527 48.8243 20.7533 46.5505 22.8205 44.2543C23.0048 44.0532 23.0607 43.6844 23.0663 43.3883C23.0942 42.1592 23.0551 40.9245 23.0886 39.6898C23.1054 38.9747 22.854 38.444 22.3512 37.9412C19.541 35.1589 16.7699 32.3375 13.9485 29.5665C12.8144 28.4491 12.2837 27.1418 12.3004 25.5663C12.3228 23.7897 12.306 22.013 12.3004 20.2364C12.3004 20.0353 12.2557 19.8342 12.211 19.4822C7.21638 25.6277 4.40061 32.4772 3.63521 40.3267H3.64638ZM8.07676 61.5903C9.33939 59.9757 10.4903 58.3723 11.7753 56.8862C12.6859 55.8303 13.1664 54.8302 13.0435 53.3273C12.8312 50.6792 12.9876 48.0031 12.982 45.3382C12.982 44.2152 12.5407 43.7794 11.4177 43.7738C8.98183 43.7682 6.54596 43.7738 4.11009 43.7738C3.92014 43.7738 3.73578 43.8241 3.5123 43.8576C3.60169 50.1484 5.06545 56.0202 8.07676 61.5959V61.5903ZM10.021 64.7804C12.7585 68.7024 15.9375 71.9539 19.8762 74.6579C19.8762 70.6578 19.8818 66.8475 19.865 63.0373C19.865 62.7468 19.7533 62.378 19.5577 62.1825C18.1834 60.7746 16.7699 59.3947 15.2782 57.9197C13.5072 60.2271 11.7753 62.4898 10.021 64.7804ZM66.2191 71.8198C69.493 68.8923 72.1691 65.5625 74.3201 61.6518C71.6607 61.6518 69.169 61.6126 66.6828 61.6797C66.1633 61.6964 65.5655 61.9925 65.1576 62.3445C64.2693 63.1043 63.448 63.9535 62.6547 64.8139C61.7329 65.814 61.7049 67.2721 62.6212 68.2498C63.7553 69.4566 64.9733 70.5907 66.2135 71.8142L66.2191 71.8198ZM58.7383 10.2024C55.8332 8.71634 52.995 7.59897 49.8888 7.05704C50.0731 7.53192 50.2966 7.95094 50.615 8.28056C52.1235 9.86723 53.6487 11.4315 55.2186 13.0517C56.2466 12.2193 57.4366 11.2584 58.7383 10.2024Z" fill="#2673E5"/>
<path id="Vector_2" d="M29.0107 7.81108C28.0888 7.82225 27.2899 7.06803 27.2676 6.15179C27.2396 5.20761 28.0609 4.37517 28.9995 4.38634C29.9269 4.4031 30.6979 5.17409 30.6923 6.09592C30.6923 7.02334 29.9325 7.79991 29.0107 7.81108Z" fill="#2673E5"/>
<path id="Vector_3" d="M10.021 64.7801C11.7753 62.4895 13.5128 60.2268 15.2783 57.9194C16.7699 59.3944 18.1834 60.7743 19.5578 62.1822C19.7533 62.3833 19.8595 62.7465 19.8651 63.037C19.8874 66.8472 19.8762 70.6519 19.8762 74.6576C15.9375 71.9536 12.753 68.7021 10.021 64.7801Z" fill="white"/>
<path id="Vector_4" d="M58.7384 10.202C57.4366 11.258 56.2466 12.2189 55.2186 13.0513C53.6487 11.4311 52.1235 9.86683 50.6151 8.28016C50.3022 7.95054 50.0732 7.53152 49.8888 7.05664C52.9895 7.59857 55.8276 8.71594 58.7384 10.202Z" fill="white"/>
</g>
</svg>
