<svg width="85" height="85" viewBox="0 0 85 85" fill="none" xmlns="http://www.w3.org/2000/svg">
<g id="Group 259">
<path id="Vector" d="M84.1121 45.2556C83.8994 46.7921 83.7187 48.3338 83.4635 49.8597C82.7511 54.1394 81.3528 58.1959 79.3485 62.045C78.8275 63.0445 77.9025 63.3901 77.0465 62.9328C76.1906 62.4756 75.9301 61.5399 76.4511 60.5298C77.8068 57.9035 78.8701 55.1655 79.5931 52.2999C79.6409 52.1192 79.6622 51.9384 79.7154 51.6301C78.264 52.2946 76.9136 52.9113 75.5632 53.5333C72.3946 54.9901 69.2101 56.4202 66.0574 57.9088C64.8027 58.4989 63.6437 58.5149 62.3731 57.946C57.9658 55.9842 53.5372 54.0756 49.1192 52.1404C47.3382 51.3589 46.6311 49.9501 47.0617 48.0361C47.6997 45.1918 48.3377 42.3475 49.0022 39.5085C49.1511 38.8706 49.1139 38.3176 48.848 37.7063C46.227 31.7465 43.6113 25.7814 41.0541 19.7951C40.7404 19.0561 40.6075 18.1523 40.6766 17.3495C41.0435 13.0007 41.5007 8.66246 41.9207 4.31891C41.926 4.24448 41.9101 4.16474 41.8941 3.99461C35.3868 4.05841 29.2728 5.6055 23.5842 8.75284C17.4597 12.1341 12.6058 16.8445 8.94804 22.8787C12.0688 24.3939 15.0992 25.8771 18.1508 27.3339C18.4113 27.4561 18.7941 27.4295 19.0918 27.3604C29.342 24.9946 38.7308 32.6397 38.4012 43.1131C38.3108 45.9574 37.4336 48.5944 35.8759 50.9549C35.1103 52.1139 35.0678 53.0974 35.5728 54.3999C37.4123 59.1794 39.0817 64.0227 40.868 68.8235C41.4475 70.3865 41.2561 71.705 40.2141 73.0128C38.465 75.2138 36.801 77.4787 35.105 79.7169C34.9402 79.9295 34.786 80.1528 34.5149 80.5303C35.8865 80.727 37.1253 80.9663 38.3799 81.0832C46.6683 81.8382 54.4569 80.206 61.6341 75.9847C63.6225 74.8151 65.4194 73.3212 67.3121 71.9868C67.663 71.7369 68.0192 71.4551 68.4232 71.3275C69.0984 71.1095 69.864 71.5242 70.1989 72.1782C70.5604 72.8906 70.4382 73.6827 69.7151 74.225C67.7108 75.7296 65.7597 77.3351 63.6171 78.6164C55.7382 83.3374 47.168 85.2194 38.0397 84.3422C19.9797 82.6037 4.99791 69.2116 1.2126 51.5131C-3.0193 31.7731 7.20956 11.964 25.7215 4.05841C29.9161 2.26676 34.2916 1.18752 38.8478 0.852583C39.087 0.836634 39.3263 0.762204 39.5602 0.714355C41.2508 0.714355 42.9468 0.714355 44.6374 0.714355C44.765 0.751571 44.8926 0.815368 45.0255 0.826001C48.9437 1.05992 52.7344 1.90524 56.4399 3.17587C56.7323 3.27689 57.1842 3.16524 57.466 2.99511C63.2609 -0.471215 70.7837 0.203975 75.8237 4.67511C80.9222 9.19942 82.5065 16.4457 79.726 22.6607C79.5027 23.1604 79.508 23.5432 79.7526 24.0323C81.5815 27.6847 82.8415 31.5285 83.4954 35.569C83.7346 37.047 83.9101 38.5303 84.1174 40.0083V45.2503L84.1121 45.2556ZM50.2037 48.9665C50.3101 49.0516 50.3685 49.1207 50.4377 49.1473C54.8822 51.0878 59.3215 53.0283 63.7766 54.9475C64.0318 55.0592 64.4253 55.0273 64.6858 54.9103C69.7683 52.5976 74.8349 50.2531 79.9174 47.9351C80.3374 47.7437 80.5235 47.5151 80.582 47.0473C81.1242 42.5549 80.8691 38.105 79.7792 33.7295C79.205 31.4275 78.3863 29.184 77.6739 26.9138C77.5835 26.9245 77.4878 26.9351 77.3974 26.9457C77.2326 27.2222 77.0678 27.4987 76.9083 27.7751C74.0746 32.6822 71.2516 37.5999 68.3966 42.4964C67.0197 44.8622 64.0425 44.9047 62.6815 42.5655C59.0609 36.3452 55.4245 30.1409 51.905 23.8675C48.7258 18.2002 49.3956 11.5546 53.484 6.48271C53.6435 6.286 53.7923 6.07866 54.1007 5.67461C51.0756 5.07917 48.2313 4.52094 45.3285 3.95739C45.2435 4.43587 45.185 4.6698 45.1637 4.90372C44.7597 9.00271 44.345 13.0964 43.9835 17.1954C43.9303 17.7802 44.0313 18.4447 44.2653 18.987C46.7161 24.6916 49.1723 30.3961 51.7136 36.0635C52.3994 37.5946 52.543 39.0247 52.1177 40.6409C51.3946 43.4002 50.8311 46.202 50.2037 48.9771V48.9665ZM7.43285 25.7921C7.34779 25.9197 7.29462 25.9835 7.26272 26.0526C7.15639 26.2706 7.04475 26.4938 6.94905 26.7171C3.69006 34.0219 2.61614 41.6457 4.18981 49.4875C7.18298 64.4055 16.0508 74.3154 30.3361 79.4457C30.8465 79.6318 31.1442 79.5574 31.4845 79.0949C33.4888 76.4047 35.5144 73.7306 37.5665 71.0776C37.8961 70.647 37.9121 70.3014 37.7366 69.8176C36.1896 65.6017 34.6584 61.3751 33.122 57.1539C33.0369 56.9199 32.9199 56.6966 32.787 56.3883C32.5903 56.7179 32.4468 56.9518 32.3139 57.1858C30.1022 61.0083 27.9118 64.8414 25.6789 68.648C24.3232 70.9607 21.346 71.0032 20.0063 68.7012C16.3166 62.364 12.5739 56.0587 9.04905 49.6311C6.49184 44.9632 6.61411 40.1093 8.99057 35.3457C10.2453 32.8311 12.1113 30.8374 14.5516 29.2425C12.1166 28.0622 9.77741 26.9245 7.43285 25.7868V25.7921ZM65.5258 40.9759C69.2845 34.4154 73.1389 28.1047 76.5627 21.5655C78.9817 16.9508 78.163 12.3255 74.803 8.37005C71.443 4.41461 67.025 3.21841 62.0754 4.57942C54.3825 6.69537 50.9108 15.4994 54.8982 22.549C56.8972 26.0845 58.9546 29.588 60.9855 33.1075C62.4688 35.6807 63.9521 38.2485 65.5258 40.9759ZM22.8187 67.0584C23.4566 65.9579 24.0202 64.9956 24.5731 64.028C27.6194 58.7382 30.7827 53.5068 33.6802 48.1318C36.1204 43.5969 35.6366 39.0566 32.5265 34.9949C29.4217 30.9384 25.1632 29.4498 20.1817 30.5025C12.1698 32.1931 8.11867 41.0875 12.0156 48.3019C13.2969 50.6784 14.6898 52.9911 16.0402 55.325C18.2731 59.1954 20.5113 63.0657 22.8187 67.0584Z" fill="#2673E5"/>
<path id="Vector_2" d="M60.7356 68.0634C60.7303 69.4616 59.9169 70.6791 58.5559 71.1097C56.3761 71.8008 54.1804 72.4601 51.9741 73.0502C50.3313 73.4915 48.8268 72.7418 48.1197 71.2001C47.3913 69.6158 46.6896 68.0208 46.0303 66.4046C45.3711 64.7884 45.9878 63.0978 47.5189 62.2737C48.5716 61.7049 49.6508 61.1732 50.7354 60.6629C51.9847 60.0727 53.1969 60.195 54.2655 61.0669C56.0837 62.5502 57.8701 64.0707 59.6511 65.5965C60.3954 66.2345 60.7516 67.0745 60.7356 68.058V68.0634ZM49.0713 65.2137C49.7465 66.7608 50.4217 68.2973 51.1235 69.9029C53.2288 69.2861 55.2756 68.6854 57.4713 68.0421C56.4453 67.1702 55.5415 66.3993 54.627 65.6391C53.8136 64.9639 53.0215 63.8474 52.1442 63.773C51.2192 63.6879 50.2037 64.6023 49.2255 65.0808C49.2042 65.0915 49.183 65.1127 49.0713 65.2137Z" fill="#2673E5"/>
<path id="Vector_3" d="M75.2921 67.6805C75.2921 68.579 74.5797 69.3021 73.6918 69.3074C72.8252 69.3127 72.065 68.5737 72.0437 67.7018C72.0225 66.798 72.7987 66.0324 73.7078 66.0431C74.6063 66.059 75.2974 66.7661 75.2921 67.6752V67.6805Z" fill="#2673E5"/>
<path id="Vector_4" d="M61.5491 15.308C60.1136 12.2936 60.4273 10.0075 62.4688 8.40724C64.2924 6.97711 66.8921 7.01433 68.6678 8.49762C70.6349 10.1404 70.922 12.5009 69.4493 15.3027C71.6556 17.0358 71.9162 19.4867 71.8098 22.0758C71.7248 24.1067 70.4063 25.4518 68.3913 25.4677C66.4561 25.4837 64.5156 25.4837 62.5805 25.4677C60.6506 25.4518 59.2736 24.1014 59.2417 22.1822C59.2258 21.2571 59.2045 20.3214 59.3055 19.4017C59.4863 17.7323 60.2997 16.3713 61.5597 15.308H61.5491ZM62.506 22.145H68.4924C68.4924 21.3422 68.5668 20.5766 68.4764 19.8323C68.285 18.2108 66.9559 17.1209 65.3716 17.19C63.766 17.2591 62.5539 18.5191 62.506 20.1832C62.4848 20.8052 62.506 21.4326 62.506 22.1503V22.145ZM67.126 12.2936C67.142 11.3845 66.4668 10.672 65.5683 10.6455C64.6326 10.6189 63.883 11.3419 63.8883 12.267C63.8883 13.1602 64.606 13.8726 65.4992 13.8779C66.403 13.8832 67.1101 13.1974 67.126 12.2936Z" fill="#2673E5"/>
<path id="Vector_5" d="M26.7582 41.4493C29.1718 43.3206 29.2356 45.9895 29.0655 48.7062C28.9645 50.2958 27.5928 51.5877 25.9554 51.625C23.8554 51.6675 21.7554 51.6675 19.6607 51.625C18.188 51.5931 16.8217 50.4925 16.6516 49.0837C16.3166 46.2553 16.3698 43.4855 18.9111 41.4333C18.0445 40.1361 17.6883 38.7591 18.0604 37.2386C18.3369 36.1115 18.9377 35.1971 19.8627 34.4953C21.7394 33.0758 24.2647 33.1662 26.0404 34.708C27.9384 36.3561 28.1989 38.7007 26.7582 41.4439V41.4493ZM25.7852 48.3234C25.7852 47.4728 25.8544 46.6594 25.7693 45.8566C25.6151 44.4531 24.3285 43.3579 22.9037 43.31C21.5215 43.2622 20.1551 44.2617 19.9318 45.6174C19.7883 46.4893 19.8308 47.3931 19.7883 48.3234H25.7852ZM21.2025 38.387C21.1971 39.2961 21.883 40.0085 22.7815 40.0244C23.7012 40.0404 24.4721 39.2855 24.4561 38.3817C24.4402 37.5151 23.6799 36.7655 22.8134 36.7655C21.9415 36.7655 21.2078 37.5044 21.2025 38.387Z" fill="#2673E5"/>
</g>
</svg>
