<svg width="85" height="85" viewBox="0 0 85 85" fill="none" xmlns="http://www.w3.org/2000/svg">
<g id="Layer_1" clip-path="url(#clip0_10710_57620)">
<g id="Vector">
<mask id="path-1-inside-1_10710_57620" fill="white">
<path d="M82.7488 75.5627C82.0084 76.2629 81.3656 76.8655 80.654 77.5312C80.4818 77.3648 80.2465 77.1582 80.0284 76.9401C77.9622 74.8797 75.9076 72.8078 73.8357 70.7532C71.0751 68.0155 67.4307 67.895 64.4692 70.4203C63.5739 71.1836 62.9483 71.1664 62.0874 70.3112C60.1016 68.3369 58.1216 66.3569 56.1473 64.3768C55.5791 63.8029 54.9478 63.5159 54.1615 63.889C53.1054 64.3883 52.9333 65.6222 53.8343 66.5348C55.6537 68.3828 57.496 70.2079 59.3326 72.0388C59.5564 72.2626 59.7745 72.5036 60.027 72.7676C59.3498 73.4219 58.7012 74.0418 57.9035 74.8108C57.3181 74.1623 56.7384 73.4564 56.0784 72.8308C55.8144 72.584 55.3839 72.4175 55.0166 72.3946C54.0524 72.3372 53.0825 72.3774 52.0552 72.3774C52.0552 74.0131 51.9404 75.6029 52.0896 77.1697C52.2216 78.5586 53.4957 79.4424 55.0166 79.4482C58.9939 79.4596 62.9713 79.4711 66.9543 79.4367C67.7808 79.4309 68.4178 79.6605 68.9918 80.2631C69.7608 81.0724 70.6045 81.807 71.4482 82.6048C70.6848 83.3222 70.042 83.9248 69.1812 84.7398C68.6646 84.1429 68.1366 83.437 67.5053 82.8458C67.1839 82.5474 66.6616 82.3121 66.2254 82.3063C62.5695 82.2661 58.9193 82.2834 55.2634 82.2834C51.5558 82.2834 49.1855 79.913 49.1798 76.2112C49.1798 74.9773 49.1798 73.7433 49.1798 72.4118H22.3544V69.5996H40.634V63.4011C37.0297 64.526 33.9592 63.7742 31.8701 60.5086C30.2631 57.9948 30.332 55.3088 32.0481 52.8638C34.1831 49.822 37.1732 49.1448 40.6684 50.264V44.0942H39.7329C37.2593 44.0942 34.78 44.0828 32.3063 44.0942C31.5373 44.0942 30.8141 44.0655 30.4353 43.2506C30.0451 42.4126 30.5386 41.8731 31.0609 41.3107C32.4096 39.8587 32.5876 37.8212 31.5487 36.174C30.5214 34.5441 28.5414 33.8152 26.6933 34.3949C24.8854 34.9573 23.64 36.7365 23.7433 38.6477C23.8007 39.7152 24.2082 40.6449 24.9715 41.4083C25.4766 41.9133 25.8554 42.4528 25.5282 43.2104C25.1896 43.9909 24.5353 44.1057 23.7778 44.1057C20.977 44.0885 18.182 44.1 15.3123 44.1V53.168C15.364 53.2254 15.4156 53.2828 15.4673 53.3402C15.7428 53.0188 15.9896 52.663 16.2938 52.3703C18.1648 50.5567 20.8794 50.528 22.6299 52.2899C24.3804 54.0519 24.346 56.7608 22.5151 58.6261C20.7589 60.411 18.974 62.1615 17.1776 63.9521C18.3542 65.6911 19.0027 67.5449 18.9797 69.6168C18.9568 71.7862 18.4001 73.8409 16.9079 75.3905C14.3826 78.0191 11.6679 80.4697 8.9934 83.0295C8.54573 82.5588 7.92589 81.9046 7.11091 81.0437C7.33475 80.9059 7.65615 80.7797 7.88572 80.5501C9.96333 78.5012 12.0295 76.4408 14.0784 74.3689C16.7586 71.6542 16.8734 67.9581 14.3883 65.0655C13.6135 64.1587 13.6193 63.5274 14.4572 62.6837C16.4315 60.6979 18.4402 58.7466 20.3686 56.7206C20.7474 56.3246 21.0287 55.6244 20.9713 55.1022C20.9253 54.6717 20.3686 54.0634 19.9439 53.9715C19.4389 53.8625 18.6756 54.0634 18.2968 54.4192C16.4028 56.1926 14.6007 58.0521 12.7756 59.8945C12.5517 60.124 12.3796 60.411 12.15 60.7152C11.4154 59.9059 10.8127 59.2402 10.0494 58.3965C10.6004 57.9029 11.3121 57.329 11.9376 56.6747C12.1902 56.4107 12.3681 55.986 12.391 55.6187C12.4542 54.6545 12.414 53.6788 12.414 52.6458C10.7668 52.6458 9.14836 52.5195 7.56432 52.6859C6.20411 52.8237 5.34896 54.092 5.34896 55.567C5.33748 59.5444 5.326 63.5217 5.36044 67.499C5.36618 68.3656 5.11939 69.0142 4.48807 69.6053C3.69605 70.3457 2.98438 71.1721 2.19236 72.0043C1.48643 71.2295 0.878063 70.5638 0.131958 69.743C0.711625 69.2208 1.40608 68.6698 1.99722 68.0213C2.27845 67.7171 2.4908 67.2235 2.49654 66.8103C2.53671 63.1257 2.51376 59.4468 2.5195 55.7622C2.5195 52.1177 4.90703 49.7532 8.56295 49.7474C9.80263 49.7474 11.0366 49.7474 12.3738 49.7474V22.9335H15.2148V41.1902H21.3902C20.2481 37.4482 21.0918 34.303 24.5755 32.2713C27.1525 30.7676 29.8384 30.9857 32.2088 32.7993C35.021 34.9573 35.6351 37.8614 34.5389 41.2189H40.7144C40.7144 39.2101 40.7144 37.2473 40.7144 35.2787C40.7144 34.3949 40.7316 33.511 40.7144 32.6272C40.6971 31.8925 40.8808 31.2842 41.6154 30.9743C42.3328 30.6701 42.8494 31.0144 43.3544 31.4793C44.8581 32.8797 46.7291 33.1781 48.3878 32.2484C49.9087 31.3932 50.6892 30.0617 50.6031 28.317C50.517 26.6124 49.6447 25.3613 48.0836 24.6668C46.4823 23.9551 44.9786 24.2306 43.6184 25.3268C43.5037 25.4186 43.4061 25.5277 43.297 25.631C42.8264 26.0959 42.3041 26.3771 41.6269 26.0901C40.9325 25.7974 40.7086 25.2465 40.7144 24.5291C40.7258 21.9636 40.7144 19.4039 40.7144 16.8384C40.7144 16.5228 40.7144 16.2014 40.7144 15.8455H31.4627C31.8414 16.2301 32.1399 16.5285 32.4268 16.827C34.2347 18.7152 34.2577 21.4184 32.4842 23.1688C30.728 24.8964 28.0707 24.8734 26.2112 23.0942C25.2987 22.2161 24.4091 21.3093 23.5195 20.4083C22.6529 19.5301 21.792 18.6406 20.9024 17.728C20.6212 17.8945 20.4088 18.0322 20.185 18.1585C16.6725 20.1443 13.0511 20.259 9.89446 17.7797C6.88134 15.4094 4.29293 12.4995 1.49217 9.79634C2.23253 9.08467 2.86385 8.47631 3.56404 7.79908C3.76492 7.98847 4.00023 8.19509 4.21832 8.41892C6.2615 10.4621 8.29894 12.5053 10.3479 14.5427C13.1544 17.332 16.7873 17.4697 19.7775 14.9215C20.6671 14.1639 21.2927 14.1811 22.1593 15.042C24.1451 17.0163 26.1136 19.0021 28.1052 20.9764C28.8513 21.7168 29.6146 21.8259 30.3148 21.3208C31.1699 20.7124 31.2216 19.6392 30.3951 18.8013C28.5758 16.9532 26.7335 15.1281 24.8969 13.2973C24.6731 13.0677 24.455 12.8324 24.2082 12.5799C24.8797 11.9141 25.511 11.2828 26.1768 10.6228C26.3662 10.795 26.5843 10.9212 26.7048 11.1106C28.0363 13.171 30.0164 13.2284 32.1973 12.8669C32.1973 11.3517 32.3006 9.79634 32.1686 8.25822C32.0481 6.83488 30.7682 5.91085 29.2071 5.90512C25.2298 5.89938 21.2525 5.88216 17.2694 5.91659C16.4372 5.92233 15.8059 5.68702 15.2377 5.07866C14.4801 4.26368 13.6537 3.51184 12.8158 2.69686C13.5561 2.01963 14.2047 1.42274 15.0254 0.670898C15.5706 1.26204 16.1445 1.96797 16.8045 2.58208C17.0915 2.84608 17.5507 3.0527 17.9352 3.0527C21.6485 3.08713 25.3618 3.06991 29.0751 3.07565C32.6622 3.07565 35.044 5.46893 35.0554 9.06745C35.0554 10.3301 35.0554 11.5927 35.0554 12.9529H61.8865V15.7652H43.6012V21.9521C47.217 20.833 50.253 21.602 52.388 24.8505C53.9893 27.2896 53.7769 30.4577 52.0093 32.8051C50.1268 35.3074 47.3088 36.088 43.6127 35.1065V41.2648C44.1694 41.2648 44.7491 41.2648 45.3287 41.2648C47.5671 41.2648 49.8111 41.2762 52.0494 41.259C52.8013 41.259 53.4728 41.3394 53.8229 42.1199C54.1787 42.9119 53.7482 43.4457 53.2432 43.9967C51.9806 45.3684 51.6649 46.9524 52.434 48.6512C53.1801 50.3099 54.546 51.1822 56.3654 51.1478C58.179 51.1134 59.5047 50.1951 60.1992 48.5077C60.8764 46.8491 60.5091 45.3511 59.3555 43.9967C59.0284 43.6121 58.7012 43.1243 58.6439 42.6479C58.5405 41.8502 59.2637 41.282 60.2336 41.2763C62.977 41.2648 65.7146 41.2763 68.458 41.2763C68.6015 41.2763 68.745 41.2648 68.9573 41.2533V32.2082C68.8999 32.1508 68.8425 32.0934 68.7794 32.036C68.5269 32.3459 68.303 32.6788 68.0218 32.9543C66.1164 34.8196 63.3902 34.8655 61.6225 33.0748C59.8778 31.3071 59.918 28.6097 61.7603 26.7387C63.5165 24.9538 65.3014 23.2033 67.0921 21.4241C65.5023 19.0997 64.8251 16.5916 65.5138 13.9171C65.8639 12.5569 66.3976 11.059 67.3274 10.0661C69.8354 7.38585 72.6018 4.94092 75.2992 2.37546C75.7182 2.81739 76.338 3.46592 77.1645 4.32108C76.9234 4.4703 76.602 4.6023 76.3782 4.82613C74.3063 6.87505 72.2345 8.93545 70.1855 11.0073C67.4995 13.722 67.3848 17.4009 69.8756 20.305C70.6504 21.2118 70.6447 21.8431 69.8067 22.6867C67.8152 24.6955 65.8007 26.6813 63.8092 28.6958C62.8106 29.7116 63.1205 31.1522 64.3889 31.4908C65.1005 31.6802 65.6343 31.3473 66.1164 30.8595C67.9243 29.0401 69.7436 27.238 71.5515 25.4129C71.7581 25.2063 71.9016 24.9365 72.1139 24.6496C72.8428 25.4703 73.4397 26.1418 74.1915 26.9912C73.6635 27.4676 72.9519 28.0358 72.3263 28.69C72.0738 28.954 71.8958 29.3787 71.8729 29.7461C71.8097 30.7103 71.8499 31.6859 71.8499 32.696C73.5201 32.696 75.1672 32.8338 76.78 32.6559C78.1172 32.5066 78.915 31.267 78.9207 29.8092C78.9322 25.8319 78.9437 21.8546 78.9092 17.8772C78.9035 17.0106 79.1445 16.3563 79.7816 15.7709C80.5794 15.0363 81.3082 14.2271 82.106 13.4121C82.7832 14.1467 83.3916 14.8125 84.1492 15.6389C83.5753 16.1497 82.8751 16.7007 82.2782 17.3435C81.997 17.6477 81.7789 18.1412 81.7731 18.5487C81.7329 22.2333 81.7559 25.9122 81.7502 29.5968C81.7444 33.2413 79.3626 35.6116 75.7124 35.6231C74.4556 35.6231 73.1929 35.6231 71.8729 35.6231V62.4312H69.0606V44.1803H62.8852C64.0273 47.9568 63.1607 51.1134 59.6195 53.1336C57.0598 54.5971 54.4025 54.3618 52.0666 52.5711C49.2544 50.4132 48.6288 47.5148 49.7365 44.1516H43.561C43.561 45.8332 43.561 47.4747 43.561 49.1161C43.561 50.3558 43.5496 51.5897 43.561 52.8294C43.5725 53.5411 43.3487 54.1035 42.66 54.3962C41.9885 54.6832 41.4605 54.4134 40.9898 53.9486C39.8363 52.8064 38.476 52.3416 36.8748 52.7433C35.1473 53.1738 33.8961 54.6028 33.6838 56.3476C33.4771 58.0751 34.3954 59.7854 35.9565 60.5946C37.5463 61.4154 39.3771 61.18 40.7258 59.9805C40.8119 59.9002 40.898 59.8198 40.9784 59.7338C41.449 59.2689 41.9713 58.9876 42.6428 59.2746C43.3372 59.5673 43.561 60.1183 43.5553 60.8357C43.5438 63.4011 43.5553 65.9609 43.5553 68.5263C43.5553 68.842 43.5553 69.1576 43.5553 69.5249H52.7783C52.4799 69.2093 52.256 68.9682 52.0265 68.7329C50.0407 66.7242 49.9374 64.0267 51.7797 62.2074C53.6277 60.388 56.2907 60.5086 58.3052 62.5173C59.9926 64.2046 61.6684 65.9035 63.3845 67.631C63.6657 67.4588 63.9068 67.3153 64.1478 67.1661C67.3503 65.2377 71.6146 65.2377 74.4441 67.6138C77.3654 70.0702 79.9825 72.8824 82.7718 75.5742L82.7488 75.5627Z"/>
</mask>
<path d="M82.7488 75.5627C82.0084 76.2629 81.3656 76.8655 80.654 77.5312C80.4818 77.3648 80.2465 77.1582 80.0284 76.9401C77.9622 74.8797 75.9076 72.8078 73.8357 70.7532C71.0751 68.0155 67.4307 67.895 64.4692 70.4203C63.5739 71.1836 62.9483 71.1664 62.0874 70.3112C60.1016 68.3369 58.1216 66.3569 56.1473 64.3768C55.5791 63.8029 54.9478 63.5159 54.1615 63.889C53.1054 64.3883 52.9333 65.6222 53.8343 66.5348C55.6537 68.3828 57.496 70.2079 59.3326 72.0388C59.5564 72.2626 59.7745 72.5036 60.027 72.7676C59.3498 73.4219 58.7012 74.0418 57.9035 74.8108C57.3181 74.1623 56.7384 73.4564 56.0784 72.8308C55.8144 72.584 55.3839 72.4175 55.0166 72.3946C54.0524 72.3372 53.0825 72.3774 52.0552 72.3774C52.0552 74.0131 51.9404 75.6029 52.0896 77.1697C52.2216 78.5586 53.4957 79.4424 55.0166 79.4482C58.9939 79.4596 62.9713 79.4711 66.9543 79.4367C67.7808 79.4309 68.4178 79.6605 68.9918 80.2631C69.7608 81.0724 70.6045 81.807 71.4482 82.6048C70.6848 83.3222 70.042 83.9248 69.1812 84.7398C68.6646 84.1429 68.1366 83.437 67.5053 82.8458C67.1839 82.5474 66.6616 82.3121 66.2254 82.3063C62.5695 82.2661 58.9193 82.2834 55.2634 82.2834C51.5558 82.2834 49.1855 79.913 49.1798 76.2112C49.1798 74.9773 49.1798 73.7433 49.1798 72.4118H22.3544V69.5996H40.634V63.4011C37.0297 64.526 33.9592 63.7742 31.8701 60.5086C30.2631 57.9948 30.332 55.3088 32.0481 52.8638C34.1831 49.822 37.1732 49.1448 40.6684 50.264V44.0942H39.7329C37.2593 44.0942 34.78 44.0828 32.3063 44.0942C31.5373 44.0942 30.8141 44.0655 30.4353 43.2506C30.0451 42.4126 30.5386 41.8731 31.0609 41.3107C32.4096 39.8587 32.5876 37.8212 31.5487 36.174C30.5214 34.5441 28.5414 33.8152 26.6933 34.3949C24.8854 34.9573 23.64 36.7365 23.7433 38.6477C23.8007 39.7152 24.2082 40.6449 24.9715 41.4083C25.4766 41.9133 25.8554 42.4528 25.5282 43.2104C25.1896 43.9909 24.5353 44.1057 23.7778 44.1057C20.977 44.0885 18.182 44.1 15.3123 44.1V53.168C15.364 53.2254 15.4156 53.2828 15.4673 53.3402C15.7428 53.0188 15.9896 52.663 16.2938 52.3703C18.1648 50.5567 20.8794 50.528 22.6299 52.2899C24.3804 54.0519 24.346 56.7608 22.5151 58.6261C20.7589 60.411 18.974 62.1615 17.1776 63.9521C18.3542 65.6911 19.0027 67.5449 18.9797 69.6168C18.9568 71.7862 18.4001 73.8409 16.9079 75.3905C14.3826 78.0191 11.6679 80.4697 8.9934 83.0295C8.54573 82.5588 7.92589 81.9046 7.11091 81.0437C7.33475 80.9059 7.65615 80.7797 7.88572 80.5501C9.96333 78.5012 12.0295 76.4408 14.0784 74.3689C16.7586 71.6542 16.8734 67.9581 14.3883 65.0655C13.6135 64.1587 13.6193 63.5274 14.4572 62.6837C16.4315 60.6979 18.4402 58.7466 20.3686 56.7206C20.7474 56.3246 21.0287 55.6244 20.9713 55.1022C20.9253 54.6717 20.3686 54.0634 19.9439 53.9715C19.4389 53.8625 18.6756 54.0634 18.2968 54.4192C16.4028 56.1926 14.6007 58.0521 12.7756 59.8945C12.5517 60.124 12.3796 60.411 12.15 60.7152C11.4154 59.9059 10.8127 59.2402 10.0494 58.3965C10.6004 57.9029 11.3121 57.329 11.9376 56.6747C12.1902 56.4107 12.3681 55.986 12.391 55.6187C12.4542 54.6545 12.414 53.6788 12.414 52.6458C10.7668 52.6458 9.14836 52.5195 7.56432 52.6859C6.20411 52.8237 5.34896 54.092 5.34896 55.567C5.33748 59.5444 5.326 63.5217 5.36044 67.499C5.36618 68.3656 5.11939 69.0142 4.48807 69.6053C3.69605 70.3457 2.98438 71.1721 2.19236 72.0043C1.48643 71.2295 0.878063 70.5638 0.131958 69.743C0.711625 69.2208 1.40608 68.6698 1.99722 68.0213C2.27845 67.7171 2.4908 67.2235 2.49654 66.8103C2.53671 63.1257 2.51376 59.4468 2.5195 55.7622C2.5195 52.1177 4.90703 49.7532 8.56295 49.7474C9.80263 49.7474 11.0366 49.7474 12.3738 49.7474V22.9335H15.2148V41.1902H21.3902C20.2481 37.4482 21.0918 34.303 24.5755 32.2713C27.1525 30.7676 29.8384 30.9857 32.2088 32.7993C35.021 34.9573 35.6351 37.8614 34.5389 41.2189H40.7144C40.7144 39.2101 40.7144 37.2473 40.7144 35.2787C40.7144 34.3949 40.7316 33.511 40.7144 32.6272C40.6971 31.8925 40.8808 31.2842 41.6154 30.9743C42.3328 30.6701 42.8494 31.0144 43.3544 31.4793C44.8581 32.8797 46.7291 33.1781 48.3878 32.2484C49.9087 31.3932 50.6892 30.0617 50.6031 28.317C50.517 26.6124 49.6447 25.3613 48.0836 24.6668C46.4823 23.9551 44.9786 24.2306 43.6184 25.3268C43.5037 25.4186 43.4061 25.5277 43.297 25.631C42.8264 26.0959 42.3041 26.3771 41.6269 26.0901C40.9325 25.7974 40.7086 25.2465 40.7144 24.5291C40.7258 21.9636 40.7144 19.4039 40.7144 16.8384C40.7144 16.5228 40.7144 16.2014 40.7144 15.8455H31.4627C31.8414 16.2301 32.1399 16.5285 32.4268 16.827C34.2347 18.7152 34.2577 21.4184 32.4842 23.1688C30.728 24.8964 28.0707 24.8734 26.2112 23.0942C25.2987 22.2161 24.4091 21.3093 23.5195 20.4083C22.6529 19.5301 21.792 18.6406 20.9024 17.728C20.6212 17.8945 20.4088 18.0322 20.185 18.1585C16.6725 20.1443 13.0511 20.259 9.89446 17.7797C6.88134 15.4094 4.29293 12.4995 1.49217 9.79634C2.23253 9.08467 2.86385 8.47631 3.56404 7.79908C3.76492 7.98847 4.00023 8.19509 4.21832 8.41892C6.2615 10.4621 8.29894 12.5053 10.3479 14.5427C13.1544 17.332 16.7873 17.4697 19.7775 14.9215C20.6671 14.1639 21.2927 14.1811 22.1593 15.042C24.1451 17.0163 26.1136 19.0021 28.1052 20.9764C28.8513 21.7168 29.6146 21.8259 30.3148 21.3208C31.1699 20.7124 31.2216 19.6392 30.3951 18.8013C28.5758 16.9532 26.7335 15.1281 24.8969 13.2973C24.6731 13.0677 24.455 12.8324 24.2082 12.5799C24.8797 11.9141 25.511 11.2828 26.1768 10.6228C26.3662 10.795 26.5843 10.9212 26.7048 11.1106C28.0363 13.171 30.0164 13.2284 32.1973 12.8669C32.1973 11.3517 32.3006 9.79634 32.1686 8.25822C32.0481 6.83488 30.7682 5.91085 29.2071 5.90512C25.2298 5.89938 21.2525 5.88216 17.2694 5.91659C16.4372 5.92233 15.8059 5.68702 15.2377 5.07866C14.4801 4.26368 13.6537 3.51184 12.8158 2.69686C13.5561 2.01963 14.2047 1.42274 15.0254 0.670898C15.5706 1.26204 16.1445 1.96797 16.8045 2.58208C17.0915 2.84608 17.5507 3.0527 17.9352 3.0527C21.6485 3.08713 25.3618 3.06991 29.0751 3.07565C32.6622 3.07565 35.044 5.46893 35.0554 9.06745C35.0554 10.3301 35.0554 11.5927 35.0554 12.9529H61.8865V15.7652H43.6012V21.9521C47.217 20.833 50.253 21.602 52.388 24.8505C53.9893 27.2896 53.7769 30.4577 52.0093 32.8051C50.1268 35.3074 47.3088 36.088 43.6127 35.1065V41.2648C44.1694 41.2648 44.7491 41.2648 45.3287 41.2648C47.5671 41.2648 49.8111 41.2762 52.0494 41.259C52.8013 41.259 53.4728 41.3394 53.8229 42.1199C54.1787 42.9119 53.7482 43.4457 53.2432 43.9967C51.9806 45.3684 51.6649 46.9524 52.434 48.6512C53.1801 50.3099 54.546 51.1822 56.3654 51.1478C58.179 51.1134 59.5047 50.1951 60.1992 48.5077C60.8764 46.8491 60.5091 45.3511 59.3555 43.9967C59.0284 43.6121 58.7012 43.1243 58.6439 42.6479C58.5405 41.8502 59.2637 41.282 60.2336 41.2763C62.977 41.2648 65.7146 41.2763 68.458 41.2763C68.6015 41.2763 68.745 41.2648 68.9573 41.2533V32.2082C68.8999 32.1508 68.8425 32.0934 68.7794 32.036C68.5269 32.3459 68.303 32.6788 68.0218 32.9543C66.1164 34.8196 63.3902 34.8655 61.6225 33.0748C59.8778 31.3071 59.918 28.6097 61.7603 26.7387C63.5165 24.9538 65.3014 23.2033 67.0921 21.4241C65.5023 19.0997 64.8251 16.5916 65.5138 13.9171C65.8639 12.5569 66.3976 11.059 67.3274 10.0661C69.8354 7.38585 72.6018 4.94092 75.2992 2.37546C75.7182 2.81739 76.338 3.46592 77.1645 4.32108C76.9234 4.4703 76.602 4.6023 76.3782 4.82613C74.3063 6.87505 72.2345 8.93545 70.1855 11.0073C67.4995 13.722 67.3848 17.4009 69.8756 20.305C70.6504 21.2118 70.6447 21.8431 69.8067 22.6867C67.8152 24.6955 65.8007 26.6813 63.8092 28.6958C62.8106 29.7116 63.1205 31.1522 64.3889 31.4908C65.1005 31.6802 65.6343 31.3473 66.1164 30.8595C67.9243 29.0401 69.7436 27.238 71.5515 25.4129C71.7581 25.2063 71.9016 24.9365 72.1139 24.6496C72.8428 25.4703 73.4397 26.1418 74.1915 26.9912C73.6635 27.4676 72.9519 28.0358 72.3263 28.69C72.0738 28.954 71.8958 29.3787 71.8729 29.7461C71.8097 30.7103 71.8499 31.6859 71.8499 32.696C73.5201 32.696 75.1672 32.8338 76.78 32.6559C78.1172 32.5066 78.915 31.267 78.9207 29.8092C78.9322 25.8319 78.9437 21.8546 78.9092 17.8772C78.9035 17.0106 79.1445 16.3563 79.7816 15.7709C80.5794 15.0363 81.3082 14.2271 82.106 13.4121C82.7832 14.1467 83.3916 14.8125 84.1492 15.6389C83.5753 16.1497 82.8751 16.7007 82.2782 17.3435C81.997 17.6477 81.7789 18.1412 81.7731 18.5487C81.7329 22.2333 81.7559 25.9122 81.7502 29.5968C81.7444 33.2413 79.3626 35.6116 75.7124 35.6231C74.4556 35.6231 73.1929 35.6231 71.8729 35.6231V62.4312H69.0606V44.1803H62.8852C64.0273 47.9568 63.1607 51.1134 59.6195 53.1336C57.0598 54.5971 54.4025 54.3618 52.0666 52.5711C49.2544 50.4132 48.6288 47.5148 49.7365 44.1516H43.561C43.561 45.8332 43.561 47.4747 43.561 49.1161C43.561 50.3558 43.5496 51.5897 43.561 52.8294C43.5725 53.5411 43.3487 54.1035 42.66 54.3962C41.9885 54.6832 41.4605 54.4134 40.9898 53.9486C39.8363 52.8064 38.476 52.3416 36.8748 52.7433C35.1473 53.1738 33.8961 54.6028 33.6838 56.3476C33.4771 58.0751 34.3954 59.7854 35.9565 60.5946C37.5463 61.4154 39.3771 61.18 40.7258 59.9805C40.8119 59.9002 40.898 59.8198 40.9784 59.7338C41.449 59.2689 41.9713 58.9876 42.6428 59.2746C43.3372 59.5673 43.561 60.1183 43.5553 60.8357C43.5438 63.4011 43.5553 65.9609 43.5553 68.5263C43.5553 68.842 43.5553 69.1576 43.5553 69.5249H52.7783C52.4799 69.2093 52.256 68.9682 52.0265 68.7329C50.0407 66.7242 49.9374 64.0267 51.7797 62.2074C53.6277 60.388 56.2907 60.5086 58.3052 62.5173C59.9926 64.2046 61.6684 65.9035 63.3845 67.631C63.6657 67.4588 63.9068 67.3153 64.1478 67.1661C67.3503 65.2377 71.6146 65.2377 74.4441 67.6138C77.3654 70.0702 79.9825 72.8824 82.7718 75.5742L82.7488 75.5627Z" fill="#2673E5" stroke="#2673E5" stroke-width="2" mask="url(#path-1-inside-1_10710_57620)"/>
</g>
</g>
<defs>
<clipPath id="clip0_10710_57620">
<rect width="84" height="84.0631" fill="white" transform="translate(0.114746 0.682617)"/>
</clipPath>
</defs>
</svg>
