<svg width="85" height="85" viewBox="0 0 85 85" fill="none" xmlns="http://www.w3.org/2000/svg">
<g id="Group 257">
<path id="Vector" d="M58.1876 84.7039C57.9214 84.4697 57.6445 84.2567 57.3942 84.0064C52.9111 79.5286 48.4279 75.0454 43.9447 70.5622C42.9224 69.5399 42.9224 69.0501 43.934 68.0384C45.2865 66.686 46.6708 65.3602 47.9806 63.9705C49.0242 62.8631 50.1636 62.485 51.6172 63.2571C51.7982 62.9855 51.958 62.7406 52.1177 62.4903C54.1357 59.3383 56.159 56.1969 58.1663 53.0395C58.8052 52.0331 59.6412 51.3569 60.8551 51.2611C63.0009 51.0907 64.6727 52.7626 64.4225 54.9403C64.2148 56.7559 63.8315 58.5503 63.5227 60.3499C63.4907 60.5363 63.4588 60.728 63.4268 60.9143C63.3044 61.6438 63.4375 62.2774 64.0924 62.714C64.71 63.124 65.3223 63.0281 65.9506 62.7033C68.0644 61.6118 69.896 60.1636 71.4454 58.3586C73.6764 55.7603 74.8691 52.688 75.5719 49.3816C75.8488 48.0771 76.1682 46.7726 76.5356 45.4894C77.0574 43.6738 78.6867 42.4491 80.5396 42.4119C82.7066 42.3693 84.3146 44.1796 84.0697 46.3999C83.7076 49.6691 82.9835 52.8531 81.8228 55.936C79.89 61.0687 77.0148 65.5945 73.1652 69.508C73.0907 69.5878 73.0162 69.6677 72.9363 69.7422C72.3719 70.2534 71.6584 70.2907 71.1686 69.8328C70.6574 69.3536 70.6734 68.6188 71.2005 68.0065C72.4092 66.6008 73.703 65.2537 74.8052 63.7682C78.6654 58.5662 80.875 52.704 81.6098 46.2721C81.7376 45.138 80.9389 44.5044 79.9432 45.0581C79.4587 45.3243 79.0062 45.9207 78.8517 46.4531C78.1915 48.7054 77.7709 51.0268 77.0467 53.2524C75.327 58.513 71.914 62.3785 67.0049 64.9183C65.5193 65.685 64.0498 65.6584 62.6707 64.7C61.313 63.7576 60.7486 62.4052 60.9829 60.7812C61.2385 58.9975 61.5846 57.2298 61.8827 55.4514C61.9307 55.1586 62.0371 54.8391 61.9786 54.5623C61.9147 54.2801 61.723 53.886 61.4994 53.8115C61.2278 53.7157 60.8498 53.8754 60.5357 53.9872C60.4079 54.0298 60.3333 54.2375 60.2481 54.3706C58.0385 57.8208 55.8288 61.271 53.6245 64.7213C53.566 64.8118 53.5234 64.9076 53.3636 65.2111C53.6139 65.3922 53.9334 65.5626 54.1836 65.8128C56.7979 68.4111 59.4282 71.0041 61.9946 73.6504C62.5536 74.2254 62.9476 74.2574 63.5706 73.8261C64.8059 72.9689 66.0837 72.1808 67.3296 71.3502C68.1443 70.8071 68.8205 70.8231 69.2784 71.4461C69.731 72.0637 69.5712 72.7825 68.7779 73.3309C67.4148 74.284 66.0198 75.1945 64.5663 76.1688C65.6738 77.8247 64.8538 79.06 63.5812 80.242C62.0265 81.6903 60.5357 83.2078 59.0129 84.6986H58.1929L58.1876 84.7039ZM46.346 69.2418C50.4512 73.3469 54.5723 77.468 58.6295 81.5252C59.8754 80.2793 61.1799 78.9748 62.4045 77.7502C58.3207 73.677 54.1942 69.5665 50.0944 65.4774C48.8751 66.702 47.5919 67.9905 46.346 69.2418Z" fill="#2673E5"/>
<path id="Vector_2" d="M25.2239 84.7037C23.403 82.9041 21.5448 81.1364 19.7717 79.2888C18.8879 78.3623 19.0103 77.2495 19.6972 76.142C19.4842 75.9983 19.2925 75.8652 19.0902 75.7427C8.35078 69.2096 2.06261 59.7374 0.278916 47.2835C0.257619 47.1291 0.183082 46.98 0.135162 46.831C0.135162 46.2825 0.135162 45.7395 0.135162 45.191C0.593065 43.9238 1.30654 42.9175 2.69622 42.5554C4.93249 41.9697 7.21134 43.4287 7.81833 45.8619C8.28156 47.7148 8.67557 49.5837 9.18139 51.426C10.5657 56.4576 13.5741 60.1953 18.1797 62.6605C18.8559 63.0226 19.5108 63.1664 20.1817 62.7031C20.8632 62.2293 20.9218 61.5371 20.794 60.797C20.4799 59.0239 20.1604 57.2509 19.8569 55.4779C19.3724 52.6559 21.7098 50.4676 24.207 51.4899C24.9311 51.7827 25.618 52.4483 26.0599 53.1138C28.1204 56.202 30.0905 59.3487 32.0925 62.4742C32.2522 62.7244 32.4173 62.9747 32.6036 63.2622C34.1424 62.4476 35.3138 62.9587 36.3999 64.1248C37.6991 65.5251 39.0941 66.8349 40.4412 68.1927C41.2505 69.0073 41.2452 69.6089 40.4306 70.4289C38.8492 72.0156 37.2678 73.6023 35.6758 75.1783C34.9943 75.8545 34.2702 75.9397 33.7324 75.4339C33.1733 74.9014 33.2479 74.1401 33.9507 73.4319C35.2978 72.0795 36.6555 70.7324 37.944 69.4492C36.6076 68.1128 35.3031 66.8136 34.0465 65.5624C30.0479 69.577 25.9321 73.7088 21.8429 77.8139C23.0356 79.0013 24.3507 80.3058 25.7191 81.6688C26.9544 80.4282 28.2429 79.1344 29.5314 77.8459C29.7444 77.6329 29.9467 77.4093 30.1704 77.2123C30.7401 76.7011 31.4482 76.6798 31.9327 77.1537C32.4173 77.6222 32.4279 78.357 31.9221 78.9161C31.4802 79.4006 31.0063 79.8532 30.5377 80.3111C29.0362 81.7806 27.5347 83.2449 26.0333 84.7144H25.2133L25.2239 84.7037ZM30.8412 65.1364C30.7188 64.9075 30.6762 64.8116 30.6176 64.7211C28.4133 61.2709 26.2036 57.826 23.994 54.3757C23.9035 54.2373 23.8289 54.0349 23.7012 53.9923C23.3923 53.8805 23.009 53.7261 22.7374 53.8167C22.5085 53.8912 22.3221 54.2852 22.2582 54.5674C22.1943 54.8389 22.3008 55.1584 22.3541 55.4566C22.6576 57.2882 23.0196 59.1091 23.2645 60.9461C23.4775 62.5434 22.8492 63.8479 21.5075 64.7477C20.171 65.6476 18.7388 65.6955 17.3118 64.966C12.3707 62.4316 8.9205 58.566 7.19538 53.2735C6.46061 51.0213 5.98672 48.6892 5.40636 46.389C5.21468 45.6276 4.77808 45.1325 4.01669 44.9408C3.1488 44.7225 2.55246 45.2123 2.61636 46.1068C2.65363 46.6233 2.71752 47.1398 2.79738 47.6509C4.63432 59.3061 10.8266 67.9637 20.8952 73.9643C21.4436 74.2891 21.7311 74.1613 22.1304 73.7567C24.3933 71.4619 26.6775 69.1883 28.9617 66.9148C29.5793 66.3025 30.2236 65.7221 30.8412 65.1417V65.1364Z" fill="#2673E5"/>
<path id="Vector_3" d="M59.3909 17.1099C59.3909 17.7914 59.3909 18.4782 59.3909 19.1598C59.3962 20.214 58.9703 21.0766 58.0225 21.5025C56.7447 22.0723 55.9354 23.0094 55.371 24.2393C55.1793 24.6599 54.945 25.0699 54.6735 25.4426C54.0132 26.3425 53.7736 27.3222 53.8801 28.4403C53.9973 29.6756 53.4382 30.5914 52.3467 31.193C51.2232 31.816 50.1211 32.4656 49.0083 33.1045C48.1031 33.6263 47.1394 33.7168 46.3034 33.0939C45.1959 32.2686 43.998 32.0716 42.6828 32.1727C42.2462 32.2047 41.8043 32.2153 41.373 32.1727C40.159 32.0503 39.0782 32.3112 38.0665 33.0353C37.1347 33.7062 36.1284 33.6423 35.1381 33.0513C34.0146 32.3804 32.8699 31.7361 31.7358 31.0865C30.8253 30.5648 30.2609 29.7608 30.378 28.7385C30.5431 27.2742 30.0426 26.0762 29.2652 24.9208C29.0363 24.5801 28.8233 24.2287 28.6529 23.8559C28.179 22.8283 27.4709 22.0723 26.406 21.609C25.3198 21.1405 24.83 20.2407 24.8459 19.0533C24.8619 17.7169 24.8512 16.3751 24.8512 15.0333C24.8512 14.011 25.2666 13.1538 26.1877 12.7651C27.5188 12.2007 28.2962 11.1997 28.8925 9.9698C29.0682 9.60241 29.2705 9.23502 29.5048 8.90491C30.1863 7.96248 30.4845 6.94551 30.362 5.76348C30.2396 4.56548 30.7987 3.67098 31.8689 3.07996C32.9923 2.46233 34.0945 1.80742 35.202 1.15784C36.1018 0.63072 37.0709 0.513578 37.9068 1.13654C39.0622 1.99377 40.3188 2.18013 41.6818 2.07365C42.0918 2.0417 42.5071 2.03637 42.9118 2.07365C44.1257 2.19611 45.2066 1.94053 46.2129 1.19511C47.0808 0.550849 48.0552 0.593447 48.9923 1.13122C50.1743 1.80742 51.3563 2.4996 52.5384 3.18113C53.2731 3.60176 53.763 4.22472 53.8428 5.06066C53.9334 6.06165 54.0132 7.08395 53.8961 8.07962C53.8535 8.45233 53.3211 8.92088 52.9164 9.06996C52.352 9.27762 51.7823 8.93152 51.6438 8.34051C51.4788 7.63768 51.4415 6.89226 51.4468 6.16281C51.4522 5.6144 51.335 5.26298 50.8079 4.99676C49.8815 4.52821 49.0189 3.94252 48.0925 3.4793C47.8422 3.35151 47.379 3.34618 47.1713 3.50059C45.984 4.37913 44.6742 4.656 43.2312 4.53886C42.5817 4.48561 41.9161 4.49094 41.2665 4.53886C39.7224 4.65067 38.2848 4.45367 37.0123 3.46333C36.8313 3.32489 36.3893 3.35151 36.1604 3.47397C35.1913 3.97979 34.2382 4.51756 33.3278 5.1139C33.0722 5.27896 32.8113 5.71557 32.8432 5.99244C33.0083 7.46198 32.5877 8.7292 31.7677 9.9272C31.3684 10.5129 31.0063 11.1305 30.7028 11.7695C30.0799 13.0793 29.1907 14.0696 27.8436 14.6766C27.588 14.7884 27.3591 15.2357 27.3378 15.5445C27.2739 16.6094 27.2739 17.6796 27.3378 18.7392C27.3537 19.0427 27.604 19.4739 27.8649 19.5911C29.1427 20.1821 30.0373 21.0979 30.6389 22.3598C30.9531 23.0253 31.3258 23.6696 31.7411 24.2766C32.5717 25.4959 33.0189 26.7844 32.8432 28.2859C32.8113 28.5574 33.0988 28.9781 33.3544 29.1484C34.2436 29.7341 35.1966 30.2133 36.1018 30.7777C36.4852 31.0173 36.794 31.0173 37.1347 30.7458C38.2688 29.8459 39.568 29.5957 40.9843 29.7075C41.6605 29.7608 42.3527 29.7608 43.0342 29.7075C44.5517 29.5957 45.9627 29.8087 47.2139 30.7671C47.4003 30.9108 47.8422 30.9002 48.0712 30.783C49.0402 30.2826 49.9933 29.7448 50.9091 29.1484C51.1646 28.9781 51.4415 28.5468 51.4096 28.2752C51.2339 26.7737 51.6865 25.4852 52.5171 24.2712C52.9004 23.7069 53.2465 23.1159 53.5447 22.4982C54.1676 21.1937 55.0462 20.1874 56.4039 19.5911C56.6595 19.4793 56.8991 19.032 56.9204 18.7285C56.9843 17.7222 56.9151 16.7052 56.9576 15.6989C56.9843 15.1345 56.7873 14.831 56.2974 14.5382C55.6052 14.1335 54.8971 13.6756 54.37 13.0846C53.7683 12.4084 53.9014 11.6576 54.4978 11.2104C55.1047 10.7525 55.6745 10.9229 56.34 11.6097C56.6861 11.9718 57.1547 12.2433 57.6072 12.4616C58.9117 13.0952 59.5294 14.0962 59.4122 15.5551C59.3749 16.0716 59.4069 16.5934 59.4069 17.1099H59.3909Z" fill="#2673E5"/>
<path id="Vector_4" d="M72.8723 28.1315C73.048 28.6001 73.1652 29.1006 73.4048 29.5319C74.049 30.7139 74.6188 31.9279 75.9658 32.5987C76.4237 32.8277 76.7379 33.6477 76.8231 34.244C76.9615 35.2077 76.8763 36.2034 76.855 37.1884C76.8337 38.1202 76.3226 38.7219 75.5559 39.2223C73.9905 40.2393 73.1279 41.7302 73.0374 43.5937C72.9895 44.5894 72.6434 45.3242 71.7702 45.814C71.0301 46.224 70.3006 46.6499 69.5712 47.0812C68.714 47.5924 67.91 47.5285 67.0208 47.0599C65.3649 46.1814 63.6344 46.1814 61.9785 47.0599C61.0627 47.5391 60.2428 47.5977 59.3589 47.044C58.6667 46.6127 57.9479 46.2133 57.2291 45.8193C56.3187 45.3188 55.9992 44.5468 55.9353 43.5298C55.8235 41.7089 54.9875 40.218 53.4434 39.2277C52.5809 38.6739 52.1017 37.9924 52.1283 36.9541C52.1496 36.1342 52.1443 35.3142 52.1283 34.4942C52.107 33.456 52.6075 32.7904 53.4648 32.2313C54.9769 31.2517 55.8288 29.7927 55.9353 27.9984C55.9992 26.9122 56.3453 26.1136 57.325 25.5971C58.0278 25.2297 58.704 24.8197 59.3802 24.4097C60.2321 23.8933 61.0468 23.9199 61.9306 24.3831C63.6504 25.2776 65.4075 25.2776 67.1273 24.3565C67.9206 23.9305 68.6767 23.8826 69.4594 24.3299C70.1675 24.7345 70.8863 25.1392 71.5891 25.5492C72.7712 26.2413 73.0374 26.7206 72.8777 28.1262L72.8723 28.1315ZM70.4444 28.7651C70.7905 27.9239 70.3219 27.6151 69.7682 27.3435C69.4754 27.1998 69.1825 27.04 68.9216 26.8483C68.517 26.5448 68.1868 26.6247 67.7396 26.8324C67.1432 27.1092 66.4724 27.3169 65.8175 27.3808C64.8963 27.4713 63.9592 27.434 63.0328 27.3914C62.5802 27.3701 62.0265 27.3542 61.7017 27.0986C60.903 26.4756 60.2321 26.6141 59.5186 27.1678C59.3483 27.3009 59.1513 27.4074 58.9543 27.4926C58.5123 27.679 58.4431 28.0037 58.3952 28.4616C58.3206 29.1432 58.1503 29.846 57.8681 30.469C57.49 31.3102 56.9895 32.1036 56.489 32.8809C56.2441 33.259 55.9353 33.6956 55.5519 33.866C54.7107 34.2333 54.4391 34.7977 54.5776 35.655C54.6148 35.8946 54.6095 36.1501 54.5776 36.3897C54.519 36.8583 54.7426 37.0872 55.1206 37.3588C55.6957 37.7794 56.2281 38.3012 56.6434 38.8816C57.1812 39.6323 57.6125 40.4629 58.0384 41.2882C58.2355 41.6663 58.4644 42.1348 58.4005 42.5129C58.2354 43.5032 58.7359 43.9611 59.5186 44.3072C59.7156 44.3924 59.9127 44.5042 60.083 44.6373C60.493 44.9568 60.8285 44.829 61.2704 44.6267C61.8721 44.3498 62.5429 44.1528 63.1978 44.0889C64.119 43.9984 65.0561 44.0303 65.9825 44.0836C66.4617 44.1102 67.0261 44.1687 67.3775 44.435C68.107 44.9834 68.7033 44.8663 69.3476 44.3711C69.5179 44.238 69.715 44.1262 69.9173 44.0463C70.4125 43.844 70.5615 43.5085 70.5669 42.9654C70.5669 42.417 70.6893 41.8207 70.9289 41.3255C71.4081 40.3458 71.9778 39.4087 72.5582 38.4876C72.7818 38.1308 73.096 37.7421 73.4634 37.5824C74.2727 37.231 74.5442 36.6879 74.4111 35.852C74.3738 35.6124 74.3792 35.3568 74.4111 35.1172C74.4857 34.606 74.2194 34.3718 73.8254 34.0896C73.2877 33.7062 72.7818 33.2323 72.4038 32.6946C71.8554 31.9172 71.4028 31.0706 70.9662 30.2187C70.7266 29.7448 70.6041 29.2124 70.4497 28.7705L70.4444 28.7651Z" fill="#2673E5"/>
<path id="Vector_5" d="M11.2632 43.0822C11.1833 42.8586 11.0769 42.3847 10.8479 41.9747C10.177 40.7767 9.61795 39.5255 8.2336 38.844C7.77037 38.615 7.50415 37.7312 7.40298 37.1029C7.26455 36.2243 7.36571 35.3032 7.36571 34.4034C7.36571 33.4769 7.78103 32.8114 8.57437 32.3215C10.2249 31.2939 11.0928 29.7605 11.194 27.8383C11.2419 26.8746 11.5827 26.1611 12.4239 25.6873C13.1853 25.2613 13.9414 24.8247 14.6922 24.3775C15.4961 23.9036 16.2735 23.9196 17.0988 24.3562C18.8452 25.2773 20.6236 25.2773 22.37 24.3562C23.1634 23.9355 23.9194 23.8876 24.7021 24.3349C25.4582 24.7715 26.2036 25.224 26.9756 25.6393C27.9234 26.1505 28.2375 26.9492 28.2961 27.9981C28.3973 29.7658 29.2332 31.2194 30.7028 32.1884C31.6452 32.8114 32.1617 33.5302 32.1137 34.659C32.0818 35.4523 32.1031 36.2456 32.1137 37.0337C32.1244 37.9974 31.6771 38.6629 30.8678 39.1794C29.2652 40.207 28.4026 41.7138 28.2961 43.6093C28.2429 44.5624 27.9234 45.2972 27.0768 45.7764C26.2941 46.2237 25.5167 46.6816 24.734 47.1288C23.9247 47.592 23.1527 47.5388 22.3327 47.0915C20.6449 46.1757 18.9038 46.197 17.2159 47.0649C16.3321 47.5175 15.5281 47.6027 14.6655 47.0756C14.016 46.6762 13.3557 46.2822 12.6795 45.9361C11.6093 45.3877 11.0875 44.5624 11.2632 43.0769V43.0822ZM25.7191 28.7914C25.9906 27.9555 25.6179 27.62 25.0642 27.3698C24.766 27.2367 24.4732 27.0716 24.2176 26.8799C23.7916 26.5658 23.4455 26.5978 22.961 26.8427C22.4019 27.1302 21.747 27.3219 21.1188 27.3804C20.171 27.4656 19.2073 27.439 18.2542 27.3858C17.775 27.3591 17.2159 27.3059 16.8539 27.045C16.1298 26.5126 15.5387 26.5818 14.8892 27.1036C14.7028 27.258 14.4792 27.3751 14.2502 27.471C13.7764 27.668 13.6965 28.014 13.6539 28.4986C13.6006 29.1322 13.4462 29.7871 13.18 30.3568C12.7647 31.2407 12.2429 32.0819 11.7158 32.9125C11.4868 33.2693 11.1993 33.6952 10.8373 33.8443C9.90548 34.2224 9.6712 34.8666 9.81496 35.7718C9.8469 35.9581 9.84158 36.1551 9.81496 36.3415C9.74574 36.842 9.98001 37.0922 10.3953 37.3744C10.9384 37.7471 11.4229 38.2423 11.8223 38.7694C12.2642 39.3551 12.5517 40.0473 12.9457 40.6703C13.4462 41.4476 13.7657 42.2569 13.6965 43.21C13.6805 43.4336 13.9095 43.7318 14.1065 43.9022C14.394 44.1471 14.7773 44.2696 15.0808 44.5039C15.6293 44.9192 16.1031 44.9032 16.6995 44.5252C17.1361 44.2483 17.7111 44.1258 18.2382 44.0885C19.2446 44.0247 20.2615 44.0406 21.2678 44.0832C21.6938 44.0992 22.1996 44.1418 22.5138 44.3814C23.3071 44.9831 23.9833 44.8925 24.7021 44.3122C24.8672 44.1791 25.0695 44.0779 25.2718 43.9927C25.7084 43.801 25.7723 43.4709 25.8202 43.0183C25.9001 42.3368 26.0705 41.6393 26.3527 41.011C26.7307 40.1698 27.2259 39.3764 27.7264 38.5937C27.9713 38.2157 28.2801 37.7738 28.6635 37.6087C29.5207 37.2466 29.7657 36.6663 29.6379 35.8144C29.6006 35.5481 29.6911 35.25 29.6166 34.9997C29.5261 34.7069 29.3504 34.4087 29.1427 34.1798C28.6209 33.61 27.9873 33.1308 27.5294 32.5132C27.0129 31.8157 26.6029 31.033 26.2143 30.2503C25.964 29.7498 25.8415 29.1908 25.7031 28.7808L25.7191 28.7914Z" fill="#2673E5"/>
<path id="Vector_6" d="M49.5353 17.1632C49.514 21.3003 46.1863 24.5748 42.0332 24.5428C37.9494 24.5109 34.6748 21.1831 34.6961 17.0833C34.7174 12.9835 38.0186 9.6983 42.1184 9.70362C46.2502 9.70362 49.5566 13.0314 49.5353 17.1685V17.1632ZM47.0755 17.1578C47.0914 14.3785 44.8818 12.1529 42.1131 12.1582C39.371 12.1582 37.1773 14.3465 37.1613 17.0886C37.1454 19.8414 39.3071 22.0563 42.0438 22.083C44.8392 22.1096 47.0648 19.9372 47.0808 17.1578H47.0755Z" fill="#2673E5"/>
<path id="Vector_7" d="M58.9756 35.7456C58.9756 32.6734 61.4142 30.2241 64.4811 30.2241C67.5533 30.2241 70.0025 32.6627 70.0079 35.7296C70.0079 38.7965 67.5586 41.2564 64.4971 41.2617C61.4302 41.2617 58.9756 38.8178 58.9703 35.7509L58.9756 35.7456ZM61.4355 35.7562C61.4408 37.4654 62.7932 38.8071 64.5077 38.8018C66.2115 38.7965 67.5533 37.4334 67.5479 35.7243C67.5426 34.0151 66.1902 32.6787 64.4757 32.684C62.756 32.6893 61.4302 34.0364 61.4355 35.7562Z" fill="#2673E5"/>
<path id="Vector_8" d="M14.2236 35.6972C14.2396 32.641 16.7102 30.2077 19.7824 30.2237C22.8493 30.2397 25.2719 32.6996 25.2559 35.7771C25.2399 38.8387 22.7747 41.2719 19.6972 41.2559C16.6463 41.24 14.2077 38.7641 14.2236 35.6919V35.6972ZM22.796 35.7079C22.7854 33.9987 21.4276 32.673 19.7078 32.6836C17.9934 32.6996 16.6729 34.052 16.6835 35.7718C16.6995 37.4756 18.0626 38.812 19.7717 38.8014C21.4756 38.7907 22.8067 37.4277 22.796 35.7079Z" fill="#2673E5"/>
</g>
</svg>
