<svg width="85" height="69" viewBox="0 0 85 69" fill="none" xmlns="http://www.w3.org/2000/svg">
<path id="Vector" d="M0.19465 11.452C0.432979 10.8814 0.606309 10.2603 0.931302 9.74034C1.8124 8.32481 3.11237 7.53761 4.79511 7.50872C6.83896 7.47261 8.87559 7.50149 11.0422 7.50149C11.0422 6.39652 11.0422 5.37098 11.0422 4.34545C11.0422 1.94772 12.0389 0.943848 14.4005 0.943848C17.0221 0.943848 19.6365 0.943848 22.2581 0.943848C24.2586 0.943848 25.3492 2.03438 25.3636 4.02768C25.3708 5.1471 25.3636 6.2593 25.3636 7.49427C25.7175 7.49427 26.0064 7.49427 26.2952 7.49427C28.0719 7.49427 29.8413 7.46538 31.6179 7.51594C34.124 7.58094 36.175 9.56701 36.1967 12.0586C36.24 18.0096 36.2112 23.9534 36.2039 29.9044C36.2039 30.3088 36.1101 30.706 36.0523 31.1683H61.3368C61.0623 30.8721 60.8746 30.6627 60.6796 30.4677C57.6318 27.42 54.5625 24.3939 51.5436 21.3101C47.4198 17.0996 47.1959 10.6359 50.9731 6.22319C54.6419 1.9405 60.9323 1.08107 65.6411 4.22267C65.8 4.331 65.9589 4.42489 65.9228 4.40322C67.5478 3.76768 68.985 2.99492 70.516 2.63381C75.2754 1.49995 80.1936 3.73879 82.5769 7.97815C85.0107 12.297 84.3608 17.6557 80.8869 21.2162C77.8031 24.3795 74.6471 27.4778 71.5199 30.6049C71.3682 30.7566 71.2238 30.9155 70.9638 31.1899C71.3538 31.2116 71.6066 31.2332 71.8593 31.2332C74.3437 31.2332 76.8281 31.1971 79.3053 31.2621C81.3925 31.3127 82.873 32.4104 83.653 34.3171C84.4258 36.202 84.0502 37.9715 82.6852 39.4809C81.6308 40.6508 80.2586 41.0625 78.7059 41.0625C68.4216 41.0553 58.1302 41.0625 47.8459 41.0625H46.7698C46.972 41.4525 47.1021 41.7125 47.2465 41.958C50.9225 48.3351 54.613 54.705 58.2891 61.0821C59.524 63.2271 59.3579 65.3215 57.8413 66.9753C56.8085 68.0947 55.5086 68.492 54.0136 68.4847C47.4126 68.4703 40.8044 68.4847 34.2034 68.4775C32.7301 68.4775 31.2568 68.4992 29.7835 68.4631C27.3208 68.4053 25.4358 66.6864 25.1253 64.2526C24.9736 63.0609 25.378 62.0065 25.9702 60.9882C28.9241 55.8966 31.8635 50.7906 34.8029 45.6919C35.5395 44.4135 36.2762 43.1425 37.0128 41.8641C37.1428 41.6403 37.2511 41.4019 37.4317 41.0481H36.2689C32.8818 41.0481 29.5018 41.0481 26.1147 41.0481C25.7897 41.0481 25.4575 41.0336 25.1397 40.9542C24.3742 40.7592 23.8903 40.0803 23.9336 39.3148C23.977 38.5131 24.5619 37.8848 25.3853 37.7981C25.7391 37.762 26.093 37.7692 26.4469 37.7692C43.7438 37.7692 61.0479 37.7692 78.3448 37.7692C78.7492 37.7692 79.1681 37.7692 79.5581 37.6681C80.3164 37.4803 80.793 36.7654 80.7353 36.007C80.6775 35.2415 80.107 34.6276 79.3342 34.5265C79.0381 34.4904 78.7348 34.4976 78.4387 34.4976C54.2086 34.4976 29.9785 34.4976 5.74121 34.4976C4.22457 34.4976 3.46625 35.0321 3.45903 36.1082C3.44459 37.1987 4.25346 37.7765 5.79176 37.7765C7.34451 37.7765 8.90448 37.7765 10.4572 37.7765C11.7283 37.7765 12.4722 38.4048 12.4577 39.4231C12.4433 40.427 11.6778 41.0408 10.4139 41.0481C8.75281 41.0481 7.08451 41.0553 5.42344 41.0481C2.78738 41.0336 1.09019 39.7481 0.310204 37.1987C0.288537 37.1265 0.223539 37.0615 0.180206 36.9965C0.180206 36.397 0.180206 35.7976 0.180206 35.1982C0.54131 34.4254 0.895192 33.6526 1.28518 32.8293C1.10463 32.5332 0.859082 32.1793 0.671308 31.7966C0.490756 31.4066 0.353536 31.0021 0.19465 30.6122C0.19465 24.2278 0.19465 17.8363 0.19465 11.452ZM66.19 31.2621C66.4572 31.0094 66.6739 30.8144 66.8833 30.6049C69.6422 27.8461 72.4082 25.0873 75.1598 22.3284C76.4092 21.0718 77.7237 19.8657 78.8792 18.5296C81.5803 15.4169 81.3275 10.7298 78.3809 7.84816C75.4415 4.97377 70.7544 4.85821 67.6778 7.58094C66.45 8.67147 65.9011 8.65703 64.6445 7.58816C62.3912 5.67431 59.8201 5.10376 57.0035 6.00652C51.4136 7.80482 49.7237 14.7597 53.8691 19.0063C57.7763 23.0145 61.7701 26.9289 65.7278 30.8866C65.8433 31.0021 65.9733 31.096 66.1828 31.2694L66.19 31.2621ZM42.0827 65.1915C46.0332 65.1915 49.9909 65.1265 53.9414 65.2276C55.4941 65.2637 56.2741 64.0215 55.4508 62.6276C51.4425 55.8172 47.5282 48.9635 43.5777 42.1241C42.7255 40.6436 41.5122 40.6508 40.66 42.1314C36.7095 48.9707 32.7951 55.8316 28.7869 62.6348C27.9924 63.9854 28.7219 65.2709 30.3107 65.2276C34.2323 65.1265 38.1611 65.1915 42.0899 65.1915H42.0827ZM32.9468 19.7213C29.7041 20.429 26.5913 21.1079 23.4859 21.8157C23.3125 21.8518 23.1392 22.184 23.0886 22.4006C22.5325 24.9789 20.6404 26.6472 18.221 26.6545C15.8088 26.6617 13.8372 24.9789 13.3533 22.4223C13.2666 21.9529 13.0788 21.8157 12.6455 21.729C11.1794 21.4329 9.72057 21.0862 8.25449 20.7685C6.6873 20.4218 5.12011 20.0751 3.46625 19.714C3.46625 20.104 3.46625 20.4001 3.46625 20.6962C3.46625 23.4767 3.46625 26.2572 3.46625 29.045C3.46625 30.7927 3.89235 31.226 5.62565 31.226C13.996 31.226 22.3737 31.226 30.744 31.226C30.9102 31.226 31.069 31.226 31.2351 31.226C32.3762 31.1827 32.9323 30.6266 32.9396 29.4855C32.954 27.6583 32.9396 25.8311 32.9396 24.0039C32.9396 22.6173 32.9396 21.2307 32.9396 19.7285L32.9468 19.7213ZM32.9468 16.3558C32.9468 15.1641 32.9468 14.0158 32.9468 12.8747C32.9468 11.1848 32.5279 10.7659 30.809 10.7659C22.4098 10.7659 14.0177 10.7659 5.61843 10.7659C5.37288 10.7659 5.12733 10.7659 4.88178 10.7803C4.06568 10.8525 3.50958 11.3798 3.48792 12.2103C3.45181 13.568 3.4807 14.933 3.4807 16.3558C6.74508 17.078 9.97335 17.793 13.2449 18.5152C13.2666 18.3346 13.2955 18.2046 13.2955 18.0746C13.3533 16.5147 13.8516 16.0235 15.3827 16.0235C17.3182 16.0235 19.2537 16.0235 21.1892 16.0235C22.5109 16.0235 23.0814 16.5941 23.1248 17.9013C23.1248 18.0891 23.1536 18.2768 23.1681 18.5296C26.4397 17.8074 29.6752 17.0924 32.9468 16.363V16.3558ZM22.0414 4.27323H14.3716V7.44372H22.0414V4.27323ZM16.5671 19.324C16.5671 20.0246 16.5671 20.6457 16.5671 21.2668C16.5671 21.4546 16.5599 21.6495 16.5743 21.8373C16.661 22.704 17.3615 23.3684 18.1921 23.3756C18.9937 23.3756 19.7448 22.7617 19.8098 21.9384C19.8748 21.079 19.8243 20.2196 19.8243 19.324H16.5671Z" fill="#2673E5"/>
</svg>
